<svg width="24" height="25" viewBox="0 0 24 25" fill="none" xmlns="http://www.w3.org/2000/svg">
<path d="M12.28 19.73C12.984 19.68 13.6787 19.5676 14.364 19.393C15.2073 19.6457 16.0972 19.7032 16.966 19.561C17.0005 19.5565 17.0352 19.5538 17.07 19.553C17.38 19.553 17.787 19.731 18.38 20.106V19.49C18.3801 19.3827 18.4091 19.2773 18.4638 19.185C18.5185 19.0927 18.5969 19.0167 18.691 18.965C18.949 18.822 19.189 18.655 19.408 18.473C20.272 17.75 20.76 16.787 20.76 15.767C20.7597 15.4297 20.706 15.0945 20.601 14.774C20.861 14.294 21.073 13.788 21.228 13.264C21.728 14.004 21.998 14.874 22 15.767C22 17.153 21.346 18.447 20.215 19.392C20.0258 19.5494 19.8271 19.695 19.62 19.828V21.27C19.62 21.766 19.04 22.05 18.631 21.756C18.2441 21.4702 17.8436 21.2032 17.431 20.956C17.3124 20.8863 17.1891 20.8248 17.062 20.772C16.722 20.8226 16.376 20.8483 16.024 20.849C14.612 20.849 13.307 20.431 12.28 19.73ZM4.814 16.844C3.03 15.354 2 13.318 2 11.14C2 6.68598 6.258 3.12598 11.457 3.12598C16.656 3.12598 20.915 6.68598 20.915 11.14C20.915 15.594 16.656 19.153 11.457 19.153C10.8723 19.153 10.2963 19.1086 9.729 19.02C9.484 19.077 8.505 19.651 7.094 20.668C6.584 21.037 5.858 20.681 5.858 20.06V17.6C5.49244 17.3739 5.14355 17.1219 4.814 16.846M9.764 17.504C9.806 17.504 9.84933 17.5073 9.894 17.514C10.4106 17.5996 10.9334 17.6425 11.457 17.642C15.849 17.642 19.364 14.703 19.364 11.14C19.364 7.57698 15.849 4.63898 11.457 4.63898C7.067 4.63898 3.55 7.57798 3.55 11.14C3.55 12.863 4.371 14.485 5.823 15.699C6.18967 16.0043 6.58833 16.278 7.019 16.52C7.26 16.655 7.409 16.905 7.409 17.175V18.594C8.525 17.854 9.259 17.504 9.763 17.504" fill="#E77E3A"/>
<path d="M7.625 12.5C7.95652 12.5 8.27446 12.3683 8.50888 12.1339C8.7433 11.8995 8.875 11.5815 8.875 11.25C8.875 10.9185 8.7433 10.6005 8.50888 10.3661C8.27446 10.1317 7.95652 10 7.625 10C7.29348 10 6.97554 10.1317 6.74112 10.3661C6.5067 10.6005 6.375 10.9185 6.375 11.25C6.375 11.5815 6.5067 11.8995 6.74112 12.1339C6.97554 12.3683 7.29348 12.5 7.625 12.5ZM11.687 12.5C12.0185 12.5 12.3365 12.3683 12.5709 12.1339C12.8053 11.8995 12.937 11.5815 12.937 11.25C12.937 10.9185 12.8053 10.6005 12.5709 10.3661C12.3365 10.1317 12.0185 10 11.687 10C11.3555 10 11.0375 10.1317 10.8031 10.3661C10.5687 10.6005 10.437 10.9185 10.437 11.25C10.437 11.5815 10.5687 11.8995 10.8031 12.1339C11.0375 12.3683 11.3555 12.5 11.687 12.5ZM15.75 12.501C16.0815 12.501 16.3995 12.3693 16.6339 12.1349C16.8683 11.9005 17 11.5825 17 11.251C17 10.9195 16.8683 10.6015 16.6339 10.3671C16.3995 10.1327 16.0815 10.001 15.75 10.001C15.4185 10.001 15.1005 10.1327 14.8661 10.3671C14.6317 10.6015 14.5 10.9195 14.5 11.251C14.5 11.5825 14.6317 11.9005 14.8661 12.1349C15.1005 12.3693 15.4185 12.501 15.75 12.501Z" fill="#E77E3A"/>
</svg>
