<svg width="16" height="17" viewBox="0 0 16 17" fill="none" xmlns="http://www.w3.org/2000/svg">
<path fill-rule="evenodd" clip-rule="evenodd" d="M0.365166 0.863213C0.716638 0.511741 1.28649 0.511741 1.63796 0.863213L8.00156 7.22682L14.3652 0.863213C14.7166 0.511741 15.2865 0.511741 15.638 0.863213C15.9894 1.21469 15.9894 1.78453 15.638 2.13601L9.27435 8.49961L15.638 14.8632C15.9894 15.2147 15.9894 15.7845 15.638 16.136C15.2865 16.4875 14.7166 16.4875 14.3652 16.136L8.00156 9.7724L1.63796 16.136C1.28649 16.4875 0.716638 16.4875 0.365166 16.136C0.0136945 15.7845 0.0136945 15.2147 0.365166 14.8632L6.72877 8.49961L0.365166 2.13601C0.0136945 1.78453 0.0136945 1.21469 0.365166 0.863213Z" fill="#656565"/>
</svg>
