<svg width="23" height="23" viewBox="0 0 23 23" fill="none" xmlns="http://www.w3.org/2000/svg">
<path d="M8.98182 3.45455H13.1273C13.1273 2.90482 12.9089 2.37762 12.5202 1.98891C12.1315 1.60019 11.6043 1.38182 11.0545 1.38182C10.5048 1.38182 9.97762 1.60019 9.58891 1.98891C9.2002 2.37762 8.98182 2.90482 8.98182 3.45455ZM7.6 3.45455C7.6 2.53834 7.96396 1.65967 8.61182 1.01181C9.25967 0.36396 10.1383 0 11.0545 0C11.9708 0 12.8494 0.36396 13.4973 1.01181C14.1451 1.65967 14.5091 2.53834 14.5091 3.45455H21.4182C21.6014 3.45455 21.7772 3.52734 21.9067 3.65691C22.0363 3.78648 22.1091 3.96221 22.1091 4.14545C22.1091 4.32869 22.0363 4.50443 21.9067 4.634C21.7772 4.76357 21.6014 4.83636 21.4182 4.83636H19.9618L18.3119 19.1299C18.1952 20.1403 17.7112 21.0725 16.952 21.7492C16.1927 22.426 15.2111 22.7999 14.194 22.8H7.91506C6.89797 22.7999 5.91641 22.426 5.15714 21.7492C4.39786 21.0725 3.91386 20.1403 3.79724 19.1299L2.14735 4.83636H0.690909C0.507669 4.83636 0.331933 4.76357 0.202363 4.634C0.0727922 4.50443 0 4.32869 0 4.14545C0 3.96221 0.0727922 3.78648 0.202363 3.65691C0.331933 3.52734 0.507669 3.45455 0.690909 3.45455H7.6ZM5.16938 18.9724C5.24735 19.6459 5.57017 20.2672 6.07643 20.7182C6.58269 21.1691 7.23706 21.4183 7.91506 21.4182H14.194C14.872 21.4183 15.5264 21.1691 16.0327 20.7182C16.5389 20.2672 16.8617 19.6459 16.9397 18.9724L18.5703 4.83636H3.53884L5.16938 18.9724ZM8.98182 8.29091C9.16506 8.29091 9.3408 8.3637 9.47037 8.49327C9.59994 8.62284 9.67273 8.79858 9.67273 8.98182V17.2727C9.67273 17.456 9.59994 17.6317 9.47037 17.7613C9.3408 17.8908 9.16506 17.9636 8.98182 17.9636C8.79858 17.9636 8.62284 17.8908 8.49327 17.7613C8.3637 17.6317 8.29091 17.456 8.29091 17.2727V8.98182C8.29091 8.79858 8.3637 8.62284 8.49327 8.49327C8.62284 8.3637 8.79858 8.29091 8.98182 8.29091ZM13.8182 8.98182C13.8182 8.79858 13.7454 8.62284 13.6158 8.49327C13.4863 8.3637 13.3105 8.29091 13.1273 8.29091C12.944 8.29091 12.7683 8.3637 12.6387 8.49327C12.5092 8.62284 12.4364 8.79858 12.4364 8.98182V17.2727C12.4364 17.456 12.5092 17.6317 12.6387 17.7613C12.7683 17.8908 12.944 17.9636 13.1273 17.9636C13.3105 17.9636 13.4863 17.8908 13.6158 17.7613C13.7454 17.6317 13.8182 17.456 13.8182 17.2727V8.98182Z" fill="#E77E3A"/>
</svg>
