<svg width="22" height="22" viewBox="0 0 22 22" fill="none" xmlns="http://www.w3.org/2000/svg">
<path fill-rule="evenodd" clip-rule="evenodd" d="M17.995 1.99501C18.2616 1.72846 18.6231 1.57871 19 1.57871C19.377 1.57871 19.7385 1.72846 20.0051 1.99501C20.2716 2.26156 20.4214 2.62307 20.4214 3.00003C20.4214 3.37699 20.2716 3.73851 20.0051 4.00506L10.6422 13.368L7.96211 14.038L8.63212 11.3579L17.995 1.99501ZM19 0.178711C18.2518 0.178711 17.5342 0.475956 17.0051 1.00506L7.50507 10.5051C7.41536 10.5948 7.35172 10.7072 7.32095 10.8303L6.32095 14.8303C6.26131 15.0688 6.33121 15.3211 6.50507 15.495C6.67894 15.6689 6.93128 15.7388 7.16982 15.6791L11.1698 14.6791C11.2929 14.6484 11.4053 14.5847 11.495 14.495L20.995 4.99501C21.5241 4.46591 21.8214 3.74829 21.8214 3.00003C21.8214 2.25177 21.5241 1.53416 20.995 1.00506C20.4659 0.475956 19.7483 0.178711 19 0.178711ZM3.00005 2.2998C2.28396 2.2998 1.59721 2.58427 1.09086 3.09062C0.584512 3.59696 0.300049 4.28372 0.300049 4.9998V18.9998C0.300049 19.7159 0.584512 20.4026 1.09086 20.909C1.59721 21.4153 2.28396 21.6998 3.00005 21.6998H17C17.7161 21.6998 18.4029 21.4153 18.9092 20.909C19.4156 20.4026 19.7001 19.7159 19.7001 18.9998V11.9998C19.7001 11.6132 19.3866 11.2998 19 11.2998C18.6135 11.2998 18.3 11.6132 18.3 11.9998V18.9998C18.3 19.3446 18.1631 19.6752 17.9193 19.919C17.6755 20.1628 17.3448 20.2998 17 20.2998H3.00005C2.65527 20.2998 2.32461 20.1628 2.08081 19.919C1.83701 19.6752 1.70005 19.3446 1.70005 18.9998V4.9998C1.70005 4.65502 1.83701 4.32436 2.08081 4.08057C2.32461 3.83677 2.65527 3.6998 3.00005 3.6998H10C10.3866 3.6998 10.7 3.3864 10.7 2.9998C10.7 2.61321 10.3866 2.2998 10 2.2998H3.00005Z" fill="#E77E3A"/>
</svg>
