<svg width="24" height="25" viewBox="0 0 24 25" fill="none" xmlns="http://www.w3.org/2000/svg">
<path d="M21.3333 4.50016H15.94V3.50016C15.94 3.05814 15.7644 2.63421 15.4518 2.32165C15.1393 2.00909 14.7154 1.8335 14.2733 1.8335H9.60667C9.16464 1.8335 8.74072 2.00909 8.42816 2.32165C8.1156 2.63421 7.94 3.05814 7.94 3.50016V4.50016H2.66667C2.31305 4.50016 1.97391 4.64064 1.72386 4.89069C1.47381 5.14074 1.33334 5.47987 1.33334 5.8335V19.1668C1.33334 19.5205 1.47381 19.8596 1.72386 20.1096C1.97391 20.3597 2.31305 20.5002 2.66667 20.5002H21.3333C21.687 20.5002 22.0261 20.3597 22.2761 20.1096C22.5262 19.8596 22.6667 19.5205 22.6667 19.1668V5.8335C22.6667 5.47987 22.5262 5.14074 22.2761 4.89069C22.0261 4.64064 21.687 4.50016 21.3333 4.50016ZM9.27334 3.50016C9.27334 3.41176 9.30846 3.32697 9.37097 3.26446C9.43348 3.20195 9.51826 3.16683 9.60667 3.16683H14.2733C14.3617 3.16683 14.4465 3.20195 14.509 3.26446C14.5716 3.32697 14.6067 3.41176 14.6067 3.50016V4.50016H9.27334V3.50016ZM2.66667 19.1668V5.8335H21.3333V19.1668H2.66667Z" fill="#E77E3A"/>
<path d="M13.4333 17.3001H11.16C10.9301 17.3001 10.7097 17.2088 10.5472 17.0463C10.3846 16.8838 10.2933 16.6633 10.2933 16.4335V14.6335H8.49333C8.37952 14.6335 8.26682 14.611 8.16167 14.5675C8.05652 14.5239 7.96098 14.4601 7.8805 14.3796C7.80003 14.2991 7.73619 14.2036 7.69263 14.0985C7.64908 13.9933 7.62666 13.8806 7.62666 13.7668V11.5001C7.62666 11.3863 7.64908 11.2736 7.69263 11.1685C7.73619 11.0633 7.80003 10.9678 7.8805 10.8873C7.96098 10.8068 8.05652 10.743 8.16167 10.6994C8.26682 10.6559 8.37952 10.6335 8.49333 10.6335H10.2933V8.83346C10.2933 8.71965 10.3157 8.60695 10.3593 8.50181C10.4029 8.39666 10.4667 8.30112 10.5472 8.22064C10.6276 8.14016 10.7232 8.07632 10.8283 8.03277C10.9335 7.98921 11.0462 7.9668 11.16 7.9668H13.4333C13.662 7.96856 13.8808 8.06064 14.0419 8.22298C14.2029 8.38532 14.2933 8.60476 14.2933 8.83346V10.6335H16.1C16.3287 10.6352 16.5474 10.7273 16.7085 10.8896C16.8696 11.052 16.96 11.2714 16.96 11.5001V13.7668C16.96 13.9955 16.8696 14.2149 16.7085 14.3773C16.5474 14.5396 16.3287 14.6317 16.1 14.6335H14.2933V16.4335C14.2933 16.6622 14.2029 16.8816 14.0419 17.0439C13.8808 17.2063 13.662 17.2984 13.4333 17.3001ZM11.3333 16.2335H13.2067V13.5668H15.8733V11.7001H13.2067V9.03346H11.3333V11.7001H8.66666V13.5668H11.3333V16.2335Z" fill="#E77E3A"/>
</svg>
