<svg width="90" height="120" viewBox="0 0 90 120" fill="none" xmlns="http://www.w3.org/2000/svg">
<g clip-path="url(#clip0_2753_730)">
<path d="M62.5084 85.2236V82.8673H80.8298V85.2236H62.5084Z" fill="#E77E3A" stroke="#FDF2EC" stroke-width="0.8"/>
<path d="M24.4957 44.2C22.294 43.5906 20.1472 41.6325 18.8687 38.9307C19.0829 38.8939 19.3041 38.8612 19.5326 38.8338C19.8435 39.2331 20.2337 39.5653 20.6795 39.809C21.1442 40.0629 21.6572 40.2141 22.184 40.2533C23.161 41.3738 24.3587 42.159 25.5548 42.3109C25.5548 42.3109 25.5548 42.3109 25.5549 42.3109L26.1567 42.3876L26.3849 42.9486L26.3849 42.9486C29.8832 51.5481 37.0002 56.951 45.0027 56.951C53.0043 56.951 60.1175 51.5494 63.6163 42.952L63.8585 42.3853L64.4649 42.3081C65.6614 42.1561 66.8566 41.3704 67.8356 40.2503C68.362 40.2107 68.8746 40.0593 69.3388 39.8054C69.7837 39.562 70.173 39.2305 70.4834 38.832C70.7111 38.8604 70.932 38.8935 71.1454 38.9303C69.8668 41.63 67.72 43.5907 65.5211 44.2001L65.3355 44.2515L65.26 44.4287C63.5337 48.4783 60.8055 52.0245 57.3308 54.7349L57.3306 54.735C53.8112 57.4836 49.4776 58.9898 45.0085 59.0175C40.5393 58.9898 36.2057 57.4836 32.6863 54.735L32.6861 54.7349C29.2115 52.0245 26.4832 48.4783 24.7569 44.4287L24.6814 44.2514L24.4957 44.2Z" fill="#E77E3A" stroke="#FDF2EC" stroke-width="0.8"/>
<path d="M17.7492 34.531C17.7201 33.886 17.759 33.2393 17.8654 32.6016C18.2244 30.564 19.3273 29.0441 20.845 28.3718L20.8458 28.3714C21.2593 28.1872 21.6987 28.0673 22.1486 28.0162L22.4582 27.981L22.4998 27.6722C24.2658 14.5901 33.7938 4.96592 45.0031 4.96592C56.2125 4.96592 65.7376 14.5844 67.5035 27.6722L67.5451 27.9807L67.8544 28.0161C68.3045 28.0677 68.7441 28.1875 69.1578 28.3716L69.1581 28.3717C70.6732 29.0439 71.7761 30.5639 72.1351 32.6018C72.2415 33.2394 72.2803 33.886 72.2513 34.531C71.6533 34.4141 71.0499 34.3267 70.4431 34.2691C70.3624 34.1683 70.2766 34.0718 70.1859 33.9798C70.1809 33.6398 70.1494 33.3006 70.0917 32.9653C70.0323 32.588 69.9005 32.0604 69.6341 31.5565C69.3664 31.0502 68.9494 30.5439 68.3114 30.2627L68.3071 30.2608C67.826 30.0555 67.2945 29.9985 66.7808 30.0971L65.6876 30.2723L65.5838 29.1683L17.7492 34.531ZM17.7492 34.531C18.3476 34.4141 18.9515 34.3267 19.5587 34.2692C19.639 34.1678 19.7248 34.0708 19.8157 33.9786C19.8225 33.6392 19.8536 33.3006 19.9088 32.9654L19.9096 32.9606L19.9096 32.9606C19.9753 32.5899 20.1063 32.0624 20.3712 31.5576C20.6367 31.0517 21.05 30.5444 21.6891 30.2627L21.6899 30.2623C22.0131 30.1208 22.3629 30.0496 22.7158 30.0537M17.7492 34.531L65.5838 29.1681C64.4116 16.6157 55.6132 7.03532 45.0031 7.03532C34.3934 7.03532 25.5832 16.6153 24.4196 29.1681C24.4196 29.1682 24.4195 29.1684 24.4195 29.1686L24.3159 30.2714L23.22 30.0933L23.217 30.0928C23.0511 30.0672 22.8836 30.0541 22.7158 30.0537M22.7158 30.0537C22.7151 30.0537 22.7144 30.0537 22.7138 30.0537L22.713 30.4537L22.718 30.0537C22.7173 30.0537 22.7165 30.0537 22.7158 30.0537Z" fill="#E77E3A" stroke="#FDF2EC" stroke-width="0.8"/>
<path d="M65.2603 100.49C63.9743 100.491 62.725 100.919 61.7086 101.705C60.6923 102.491 59.9663 103.592 59.6446 104.834C54.9405 103.687 49.3334 100.866 43.7494 97.9336C45.4746 93.5864 45.9951 90.1862 46.1504 88.3182C53.4222 87.9394 59.0092 83.9911 62.3532 76.8406C63.9648 73.3066 64.9485 69.52 65.2603 65.6499C65.2758 65.3551 65.2081 65.0618 65.0647 64.8036C64.9213 64.5453 64.7081 64.3325 64.4494 64.1893C64.7558 61.4805 65.8822 58.9291 67.6785 56.8752C68.5181 55.9025 69.4468 54.9298 70.344 53.9915C73.8922 50.2785 77.5583 46.4421 77.5152 40.8525C77.5175 40.3117 77.4076 39.7762 77.1923 39.2799C76.9771 38.7836 76.6611 38.3372 76.2644 37.9687C74.5392 36.3045 71.3762 35.8597 69.5187 35.7478C69.4032 35.4643 69.2283 35.2089 69.0056 34.9985C68.7829 34.7882 68.5176 34.6278 68.2277 34.5283C67.687 34.3436 67.0949 34.3803 66.5813 34.6304C66.0676 34.8805 65.6743 35.3236 65.4874 35.8626C65.3024 36.4025 65.3396 36.9937 65.5908 37.5063C65.842 38.019 66.2867 38.4112 66.8274 38.5971C67.0951 38.6889 67.3783 38.7271 67.6608 38.7095C67.9433 38.692 68.2196 38.619 68.4738 38.4948C68.7281 38.3706 68.9553 38.1976 69.1424 37.9858C69.3296 37.7739 69.4731 37.5272 69.5647 37.26C69.5728 37.2374 69.5795 37.2144 69.5849 37.1911C71.2526 37.3059 73.898 37.699 75.2695 39.0046C75.5267 39.2411 75.7315 39.5287 75.8706 39.849C76.0098 40.1692 76.0802 40.5149 76.0775 40.8639C76.1178 45.8739 72.8082 49.3344 69.306 52.9987C68.3945 53.9513 67.4513 54.9384 66.5887 55.9398C64.5685 58.2351 63.3151 61.1015 63.0031 64.1406C62.746 64.2619 62.5265 64.4501 62.3676 64.6854C62.2087 64.9207 62.1163 65.1944 62.1002 65.4777C61.7988 68.9705 60.9023 72.3863 59.4491 75.578C56.4414 81.9567 51.5762 85.1905 44.9887 85.1905C38.4012 85.1905 33.5331 81.9567 30.5254 75.578C29.0723 72.3863 28.1757 68.9705 27.8743 65.4777C27.8579 65.1945 27.7654 64.9209 27.6065 64.6856C27.4477 64.4504 27.2283 64.2621 26.9714 64.1406C26.6607 61.1017 25.4084 58.2351 23.3887 55.9398C22.5261 54.9384 21.5801 53.9513 20.6714 52.9987C17.1663 49.3344 13.8567 45.8739 13.897 40.8639C13.8943 40.5147 13.965 40.1687 14.1047 39.8484C14.2444 39.5281 14.4499 39.2406 14.7079 39.0046C16.0651 37.699 18.7334 37.3059 20.3897 37.1911C20.3897 37.2141 20.3897 37.237 20.4098 37.26C20.596 37.7995 20.9891 38.2433 21.5029 38.4939C22.0166 38.7446 22.6089 38.7817 23.15 38.5971C23.6902 38.4107 24.1342 38.0181 24.3848 37.5056C24.6354 36.993 24.6722 36.4022 24.4871 35.8626C24.3009 35.3238 23.9081 34.8807 23.3949 34.6306C22.8817 34.3804 22.29 34.3436 21.7497 34.5283C21.4598 34.6277 21.1944 34.7876 20.9713 34.9974C20.7482 35.2072 20.5724 35.462 20.4558 35.7449C18.604 35.8597 15.4411 36.3045 13.7101 37.9687C13.3134 38.3372 12.9975 38.7836 12.7822 39.2799C12.5669 39.7762 12.457 40.3117 12.4593 40.8525C12.4162 46.4421 16.0823 50.2785 19.6305 53.9886C20.5277 54.9298 21.4564 55.9025 22.296 56.8752C24.0928 58.9276 25.2194 61.4783 25.5251 64.1865C25.2666 64.3299 25.0536 64.5428 24.9103 64.801C24.7669 65.0591 24.699 65.3522 24.7143 65.647C25.0291 69.5166 26.0127 73.3027 27.6213 76.8377C31.0114 84.0887 36.7047 88.0456 44.1175 88.3325C43.7822 91.2994 43.0502 94.2081 41.9408 96.9809L41.7309 96.869C34.7437 93.1847 28.1446 89.6955 23.2737 89.1962C17.6264 88.6223 13.3305 89.7185 10.5098 92.4846C7.25195 95.6839 5.93502 101.144 6.59349 108.72C7.06505 114.12 9.85419 117.784 14.4462 119.05C15.6397 119.362 16.8698 119.514 18.1037 119.5C24.9759 119.5 33.1967 115.127 37.898 108.556C39.8803 105.81 41.5833 102.873 42.9817 99.7901C48.7325 102.809 54.5206 105.695 59.5008 106.857C59.6425 108.285 60.31 109.609 61.3739 110.574C62.4379 111.539 63.8227 112.075 65.2603 112.08C66.8007 112.08 68.2781 111.469 69.3674 110.382C70.4566 109.295 71.0686 107.821 71.0686 106.284C71.0686 105.522 70.9183 104.769 70.6264 104.066C70.3345 103.363 69.9066 102.724 69.3672 102.186C68.8278 101.648 68.1875 101.221 67.4828 100.93C66.7781 100.639 66.0229 100.49 65.2603 100.49ZM36.2417 107.391C31.1235 114.545 21.5772 118.9 14.9638 117.098C11.1912 116.071 8.98582 113.113 8.58902 108.545C7.98231 101.595 9.10083 96.6739 11.9101 93.9107C13.8682 91.9882 16.6516 91.0412 20.3666 91.0412C21.2638 91.0449 22.1602 91.0947 23.0523 91.1905C27.5379 91.6553 33.9788 95.0469 40.7791 98.6509L41.1558 98.8518C39.8165 101.857 38.1738 104.718 36.2532 107.391H36.2417Z" fill="#E77E3A"/>
<path d="M65.272 110.177C67.427 110.177 69.174 108.434 69.174 106.283C69.174 104.133 67.427 102.39 65.272 102.39C63.1171 102.39 61.3701 104.133 61.3701 106.283C61.3701 108.434 63.1171 110.177 65.272 110.177Z" fill="white"/>
<path d="M27.9513 61.0747C27.7106 60.2671 27.4081 59.4793 27.0465 58.7184H62.9531C62.5904 59.4791 62.2872 60.2669 62.0465 61.0747H27.9513Z" fill="#E77E3A" stroke="#FDF2EC" stroke-width="0.8"/>
<path d="M22.5717 61.075L22.5714 61.075C17.318 61.0781 12.2804 63.1612 8.5643 66.8673C4.84821 70.5735 2.75744 75.5998 2.75122 80.843V80.8435V95.2668H0.388281V80.8437C0.395246 75.0745 2.65817 69.5357 6.69569 65.406C10.685 61.3257 16.0955 58.9395 21.7996 58.7392C22.3285 59.4666 22.7746 60.25 23.1298 61.075H22.5717Z" fill="#E77E3A" stroke="#FDF2EC" stroke-width="0.8"/>
<path d="M67.4231 61.075H67.4226H66.8645C67.2197 60.2501 67.6657 59.4667 68.1946 58.7393C73.8964 58.9432 79.3036 61.3308 83.2903 65.4107C87.3254 69.5399 89.587 75.0768 89.5945 80.844V95.2668H87.2316V80.8435V80.843C87.2254 75.6018 85.1362 70.5773 81.4226 66.8715C77.7091 63.1657 72.6745 61.0812 67.4231 61.075Z" fill="#E77E3A" stroke="#FDF2EC" stroke-width="0.8"/>
</g>
<defs>
<clipPath id="clip0_2753_730">
<rect width="90" height="119" fill="white" transform="translate(0 0.5)"/>
</clipPath>
</defs>
</svg>
