<svg width="13" height="18" viewBox="0 0 13 18" fill="none" xmlns="http://www.w3.org/2000/svg">
<path fill-rule="evenodd" clip-rule="evenodd" d="M6.5 16.54L7.131 15.829C7.847 15.0097 8.49133 14.23 9.064 13.49L9.537 12.866C11.5123 10.2053 12.5 8.09433 12.5 6.533C12.5 3.201 9.814 0.5 6.5 0.5C3.186 0.5 0.5 3.201 0.5 6.533C0.5 8.09433 1.48767 10.2057 3.463 12.867L3.936 13.491C4.75355 14.5383 5.60877 15.5546 6.5 16.54Z" stroke="#7BAED5" stroke-linecap="round" stroke-linejoin="round"/>
<path d="M6.5 9C7.88071 9 9 7.88071 9 6.5C9 5.11929 7.88071 4 6.5 4C5.11929 4 4 5.11929 4 6.5C4 7.88071 5.11929 9 6.5 9Z" stroke="#7BAED5" stroke-linecap="round" stroke-linejoin="round"/>
</svg>
