<svg width="24" height="24" viewBox="0 0 24 24" fill="none" xmlns="http://www.w3.org/2000/svg">
<path d="M11.6385 19.379C11.8418 19.5621 12.1548 19.565 12.3614 19.379C12.63 19.137 18.9463 13.4034 18.9463 8.86624C18.9461 5.03584 15.8299 1.91992 12 1.91992C8.17005 1.91992 5.05389 5.03584 5.05389 8.866C5.05389 13.4034 11.37 19.137 11.6385 19.379ZM12 2.99992C15.2345 2.99992 17.8661 5.63128 17.8661 8.866C17.8661 12.3467 13.3289 16.9605 12 18.2366C10.6704 16.9607 6.13389 12.3501 6.13389 8.866C6.13389 5.63128 8.76549 2.99992 12 2.99992Z" fill="#E77E3A"/>
<path d="M14.7 8.86602C14.7 7.37706 13.4885 6.16602 12 6.16602C10.5115 6.16602 9.29999 7.37706 9.29999 8.86602C9.29999 10.355 10.5115 11.566 12 11.566C13.4885 11.566 14.7 10.355 14.7 8.86602ZM10.38 8.86602C10.38 7.97274 11.1069 7.24602 12 7.24602C12.893 7.24602 13.62 7.97274 13.62 8.86602C13.62 9.7593 12.893 10.486 12 10.486C11.1069 10.486 10.38 9.75954 10.38 8.86602Z" fill="#E77E3A"/>
<path d="M16.4767 16.5674C15.8037 16.3267 15.4404 17.3409 16.1097 17.5833C17.1933 17.975 17.8661 18.509 17.8661 18.9773C17.8661 19.8218 15.6343 20.9997 12 20.9997C8.36565 20.9997 6.13389 19.8216 6.13389 18.9773C6.13389 18.509 6.80685 17.975 7.89021 17.5833C8.55813 17.3414 8.19813 16.3274 7.52325 16.5674C5.93061 17.1432 5.05389 17.999 5.05389 18.9775C5.05389 20.9925 8.63277 22.08 12 22.08C15.3672 22.08 18.9461 20.9925 18.9461 18.9775C18.9461 17.999 18.0693 17.1434 16.4767 16.5674Z" fill="#E77E3A"/>
</svg>
