<svg width="477" height="346" viewBox="0 0 477 346" fill="none" xmlns="http://www.w3.org/2000/svg">
<g clip-path="url(#clip0_139_1765)">
<path fill-rule="evenodd" clip-rule="evenodd" d="M460.524 109.921C464.419 127.445 466.379 145.343 466.368 163.295C466.368 202.817 457.003 240.035 440.494 272.666C423.474 287.343 399.726 291.053 370.822 282.726C244.17 246.203 202.629 281.164 134.231 291.171C75.9141 299.703 31.403 277.091 25.8691 196.802C18.3124 87.2345 156.433 -5.29851 336.663 11.7588C404.59 18.1867 444.784 57.6387 460.524 109.921Z" fill="#E5EFF7"/>
<g opacity="0.5">
<path fill-rule="evenodd" clip-rule="evenodd" d="M247.18 313.627C419.098 312.259 477 320.755 477 329.551C477 338.347 374.106 345.475 247.18 345.475C120.253 345.475 14.4554 343.85 17.3571 329.551C20.2589 315.252 75.2611 314.982 247.18 313.627Z" fill="#E5EFF7"/>
</g>
<path fill-rule="evenodd" clip-rule="evenodd" d="M104.979 86.1973H372.653C376.011 86.2072 379.229 87.5453 381.605 89.9194C383.981 92.2935 385.321 95.5109 385.333 98.8693V271.457C385.323 274.817 383.984 278.037 381.608 280.413C379.232 282.789 376.013 284.128 372.653 284.137H104.979C101.619 284.128 98.3984 282.79 96.0223 280.414C93.6462 278.038 92.3075 274.817 92.2988 271.457V98.8693C92.3101 95.5107 93.6499 92.2929 96.0257 89.9186C98.4014 87.5444 101.62 86.2066 104.979 86.1973Z" fill="#F3BE9C"/>
<path fill-rule="evenodd" clip-rule="evenodd" d="M385.333 270.817V271.455C385.323 274.815 383.984 278.035 381.609 280.411C379.233 282.787 376.013 284.127 372.653 284.137H104.979C101.619 284.127 98.3987 282.787 96.0229 280.411C93.647 278.035 92.3081 274.815 92.2988 271.455V270.817H385.333Z" fill="#E77E3A"/>
<path d="M374.434 99.4863H101.984V261.135H374.434V99.4863Z" fill="white"/>
<path fill-rule="evenodd" clip-rule="evenodd" d="M280.134 318.559C267.32 310.142 261.316 298.668 262.122 284.137H215.203C216.431 290.678 215.696 297.437 213.091 303.562C210.487 309.687 206.129 314.905 200.565 318.559H180.704V328.286H298.57V318.559H280.134Z" fill="#F3BE9C"/>
<path fill-rule="evenodd" clip-rule="evenodd" d="M290.404 318.559C276.299 312.466 268.742 300.993 267.578 284.137H262.12C261.112 298.262 266.883 310.39 280.132 318.559H290.404Z" fill="#E77E3A"/>
<path d="M158.861 59.4453H149.979V72.5078H158.861V59.4453Z" fill="white"/>
<path d="M400.582 34.5068H273.867V184.607H400.582V34.5068Z" fill="#63A5DA"/>
<path d="M398.429 36.6621H276.021V182.45H398.429V36.6621Z" fill="white"/>
<path d="M398.431 36.6621H276.023V56.7294H398.431V36.6621Z" fill="#EC743D"/>
<path d="M299.648 65.0469H281.633V83.0613H299.648V65.0469Z" fill="#C1DFF4"/>
<path d="M299.648 91.7866H281.633V109.799H299.648V91.7866Z" fill="#C1DFF4"/>
<path d="M299.648 123.604H281.633V141.616H299.648V123.604Z" fill="#C1DFF4"/>
<path d="M299.648 158.678H281.633V176.69H299.648V158.678Z" fill="#C1DFF4"/>
<path fill-rule="evenodd" clip-rule="evenodd" d="M306.709 74.4573C306.428 74.4573 306.158 74.3455 305.959 74.1467C305.76 73.9478 305.648 73.6781 305.648 73.3968C305.648 73.1156 305.76 72.8459 305.959 72.647C306.158 72.4482 306.428 72.3364 306.709 72.3364H308.832C309.114 72.3364 309.383 72.4482 309.582 72.647C309.781 72.8459 309.893 73.1156 309.893 73.3968C309.893 73.6781 309.781 73.9478 309.582 74.1467C309.383 74.3455 309.114 74.4573 308.832 74.4573H306.709ZM385.2 72.3364C385.481 72.3364 385.751 72.4482 385.949 72.647C386.148 72.8459 386.26 73.1156 386.26 73.3968C386.26 73.6781 386.148 73.9478 385.949 74.1467C385.751 74.3455 385.481 74.4573 385.2 74.4573H383.079C382.939 74.4573 382.802 74.4298 382.673 74.3765C382.544 74.3232 382.427 74.2451 382.329 74.1467C382.23 74.0482 382.152 73.9313 382.099 73.8026C382.046 73.674 382.018 73.5361 382.018 73.3968C382.018 73.2576 382.046 73.1197 382.099 72.991C382.152 72.8624 382.23 72.7455 382.329 72.647C382.427 72.5485 382.544 72.4704 382.673 72.4172C382.802 72.3639 382.939 72.3364 383.079 72.3364H385.2ZM372.469 72.3364C372.75 72.3364 373.02 72.4482 373.219 72.647C373.418 72.8459 373.53 73.1156 373.53 73.3968C373.53 73.6781 373.418 73.9478 373.219 74.1467C373.02 74.3455 372.75 74.4573 372.469 74.4573H370.351C370.07 74.4573 369.8 74.3455 369.601 74.1467C369.402 73.9478 369.29 73.6781 369.29 73.3968C369.29 73.1156 369.402 72.8459 369.601 72.647C369.8 72.4482 370.07 72.3364 370.351 72.3364H372.469ZM359.741 72.3364C359.881 72.3364 360.019 72.3639 360.147 72.4172C360.276 72.4704 360.393 72.5485 360.491 72.647C360.59 72.7455 360.668 72.8624 360.721 72.991C360.774 73.1197 360.802 73.2576 360.802 73.3968C360.802 73.5361 360.774 73.674 360.721 73.8026C360.668 73.9313 360.59 74.0482 360.491 74.1467C360.393 74.2451 360.276 74.3232 360.147 74.3765C360.019 74.4298 359.881 74.4573 359.741 74.4573H357.623C357.484 74.4573 357.346 74.4298 357.217 74.3765C357.088 74.3232 356.972 74.2451 356.873 74.1467C356.775 74.0482 356.697 73.9313 356.643 73.8026C356.59 73.674 356.563 73.5361 356.563 73.3968C356.563 73.2576 356.59 73.1197 356.643 72.991C356.697 72.8624 356.775 72.7455 356.873 72.647C356.972 72.5485 357.088 72.4704 357.217 72.4172C357.346 72.3639 357.484 72.3364 357.623 72.3364H359.741ZM347.013 72.3364C347.153 72.3364 347.291 72.3639 347.419 72.4172C347.548 72.4704 347.665 72.5485 347.763 72.647C347.862 72.7455 347.94 72.8624 347.993 72.991C348.046 73.1197 348.074 73.2576 348.074 73.3968C348.074 73.5361 348.046 73.674 347.993 73.8026C347.94 73.9313 347.862 74.0482 347.763 74.1467C347.665 74.2451 347.548 74.3232 347.419 74.3765C347.291 74.4298 347.153 74.4573 347.013 74.4573H344.893C344.611 74.4573 344.342 74.3455 344.143 74.1467C343.944 73.9478 343.832 73.6781 343.832 73.3968C343.832 73.1156 343.944 72.8459 344.143 72.647C344.342 72.4482 344.611 72.3364 344.893 72.3364H347.013ZM334.288 72.3364C334.569 72.3364 334.839 72.4482 335.038 72.647C335.237 72.8459 335.349 73.1156 335.349 73.3968C335.349 73.6781 335.237 73.9478 335.038 74.1467C334.839 74.3455 334.569 74.4573 334.288 74.4573H332.165C331.883 74.4573 331.614 74.3455 331.415 74.1467C331.216 73.9478 331.104 73.6781 331.104 73.3968C331.104 73.1156 331.216 72.8459 331.415 72.647C331.614 72.4482 331.883 72.3364 332.165 72.3364H334.288ZM321.56 72.3364C321.841 72.3364 322.111 72.4482 322.31 72.647C322.509 72.8459 322.621 73.1156 322.621 73.3968C322.621 73.6781 322.509 73.9478 322.31 74.1467C322.111 74.3455 321.841 74.4573 321.56 74.4573H319.437C319.156 74.4573 318.886 74.3455 318.687 74.1467C318.488 73.9478 318.376 73.6781 318.376 73.3968C318.376 73.1156 318.488 72.8459 318.687 72.647C318.886 72.4482 319.156 72.3364 319.437 72.3364H321.56Z" fill="#C1DFF4"/>
<path d="M387.625 65.8477H304.976V67.8123H387.625V65.8477Z" fill="#A5CDED"/>
<path fill-rule="evenodd" clip-rule="evenodd" d="M306.709 100.544C306.428 100.544 306.158 100.432 305.959 100.234C305.76 100.035 305.648 99.765 305.648 99.4838C305.648 99.2025 305.76 98.9328 305.959 98.7339C306.158 98.5351 306.428 98.4233 306.709 98.4233H308.832C309.114 98.4233 309.383 98.5351 309.582 98.7339C309.781 98.9328 309.893 99.2025 309.893 99.4838C309.893 99.765 309.781 100.035 309.582 100.234C309.383 100.432 309.114 100.544 308.832 100.544H306.709ZM385.2 98.4233C385.481 98.4233 385.751 98.5351 385.949 98.7339C386.148 98.9328 386.26 99.2025 386.26 99.4838C386.26 99.765 386.148 100.035 385.949 100.234C385.751 100.432 385.481 100.544 385.2 100.544H383.079C382.798 100.544 382.528 100.432 382.329 100.234C382.13 100.035 382.018 99.765 382.018 99.4838C382.018 99.2025 382.13 98.9328 382.329 98.7339C382.528 98.5351 382.798 98.4233 383.079 98.4233H385.2ZM372.469 98.4233C372.75 98.4233 373.02 98.5351 373.219 98.7339C373.418 98.9328 373.53 99.2025 373.53 99.4838C373.53 99.765 373.418 100.035 373.219 100.234C373.02 100.432 372.75 100.544 372.469 100.544H370.351C370.07 100.544 369.8 100.432 369.601 100.234C369.402 100.035 369.29 99.765 369.29 99.4838C369.29 99.2025 369.402 98.9328 369.601 98.7339C369.8 98.5351 370.07 98.4233 370.351 98.4233H372.469ZM359.741 98.4233C360.023 98.4233 360.292 98.5351 360.491 98.7339C360.69 98.9328 360.802 99.2025 360.802 99.4838C360.802 99.765 360.69 100.035 360.491 100.234C360.292 100.432 360.023 100.544 359.741 100.544H357.623C357.342 100.544 357.072 100.432 356.873 100.234C356.674 100.035 356.563 99.765 356.563 99.4838C356.563 99.2025 356.674 98.9328 356.873 98.7339C357.072 98.5351 357.342 98.4233 357.623 98.4233H359.741ZM347.013 98.4233C347.295 98.4233 347.564 98.5351 347.763 98.7339C347.962 98.9328 348.074 99.2025 348.074 99.4838C348.074 99.765 347.962 100.035 347.763 100.234C347.564 100.432 347.295 100.544 347.013 100.544H344.893C344.611 100.544 344.342 100.432 344.143 100.234C343.944 100.035 343.832 99.765 343.832 99.4838C343.832 99.2025 343.944 98.9328 344.143 98.7339C344.342 98.5351 344.611 98.4233 344.893 98.4233H347.013ZM334.288 98.4233C334.569 98.4233 334.839 98.5351 335.038 98.7339C335.237 98.9328 335.349 99.2025 335.349 99.4838C335.349 99.765 335.237 100.035 335.038 100.234C334.839 100.432 334.569 100.544 334.288 100.544H332.165C331.883 100.544 331.614 100.432 331.415 100.234C331.216 100.035 331.104 99.765 331.104 99.4838C331.104 99.2025 331.216 98.9328 331.415 98.7339C331.614 98.5351 331.883 98.4233 332.165 98.4233H334.288ZM321.56 98.4233C321.841 98.4233 322.111 98.5351 322.31 98.7339C322.509 98.9328 322.621 99.2025 322.621 99.4838C322.621 99.765 322.509 100.035 322.31 100.234C322.111 100.432 321.841 100.544 321.56 100.544H319.437C319.156 100.544 318.886 100.432 318.687 100.234C318.488 100.035 318.376 99.765 318.376 99.4838C318.376 99.2025 318.488 98.9328 318.687 98.7339C318.886 98.5351 319.156 98.4233 319.437 98.4233H321.56Z" fill="#C1DFF4"/>
<path d="M387.625 91.9351H304.976V93.8997H387.625V91.9351Z" fill="#A5CDED"/>
<path fill-rule="evenodd" clip-rule="evenodd" d="M306.709 132.233C306.436 132.22 306.179 132.102 305.991 131.905C305.802 131.707 305.697 131.445 305.697 131.172C305.697 130.899 305.802 130.636 305.991 130.438C306.179 130.241 306.436 130.123 306.709 130.11H308.832C309.105 130.123 309.362 130.241 309.55 130.438C309.738 130.636 309.843 130.899 309.843 131.172C309.843 131.445 309.738 131.707 309.55 131.905C309.362 132.102 309.105 132.22 308.832 132.233H306.709ZM385.199 130.102C385.472 130.116 385.729 130.233 385.917 130.431C386.106 130.629 386.211 130.891 386.211 131.164C386.211 131.437 386.106 131.699 385.917 131.897C385.729 132.095 385.472 132.212 385.199 132.226H383.078C382.935 132.233 382.791 132.21 382.656 132.16C382.521 132.11 382.398 132.033 382.294 131.934C382.189 131.834 382.106 131.715 382.05 131.583C381.993 131.45 381.964 131.308 381.964 131.164C381.964 131.02 381.993 130.878 382.05 130.745C382.106 130.613 382.189 130.494 382.294 130.394C382.398 130.295 382.521 130.218 382.656 130.168C382.791 130.118 382.935 130.095 383.078 130.102H385.199ZM372.469 130.102C372.742 130.116 372.999 130.233 373.187 130.431C373.375 130.629 373.48 130.891 373.48 131.164C373.48 131.437 373.375 131.699 373.187 131.897C372.999 132.095 372.742 132.212 372.469 132.226H370.351C370.078 132.212 369.821 132.095 369.633 131.897C369.444 131.699 369.339 131.437 369.339 131.164C369.339 130.891 369.444 130.629 369.633 130.431C369.821 130.233 370.078 130.116 370.351 130.102H372.469ZM359.741 130.102C359.885 130.095 360.028 130.118 360.163 130.168C360.298 130.218 360.422 130.295 360.526 130.394C360.63 130.494 360.713 130.613 360.77 130.745C360.826 130.878 360.856 131.02 360.856 131.164C360.856 131.308 360.826 131.45 360.77 131.583C360.713 131.715 360.63 131.834 360.526 131.934C360.422 132.033 360.298 132.11 360.163 132.16C360.028 132.21 359.885 132.233 359.741 132.226H357.623C357.479 132.233 357.335 132.21 357.2 132.16C357.065 132.11 356.942 132.033 356.838 131.934C356.734 131.834 356.651 131.715 356.594 131.583C356.537 131.45 356.508 131.308 356.508 131.164C356.508 131.02 356.537 130.878 356.594 130.745C356.651 130.613 356.734 130.494 356.838 130.394C356.942 130.295 357.065 130.218 357.2 130.168C357.335 130.118 357.479 130.095 357.623 130.102H359.741ZM347.013 130.102C347.157 130.095 347.301 130.118 347.435 130.168C347.57 130.218 347.694 130.295 347.798 130.394C347.902 130.494 347.985 130.613 348.042 130.745C348.099 130.878 348.128 131.02 348.128 131.164C348.128 131.308 348.099 131.45 348.042 131.583C347.985 131.715 347.902 131.834 347.798 131.934C347.694 132.033 347.57 132.11 347.435 132.16C347.301 132.21 347.157 132.233 347.013 132.226H344.892C344.62 132.212 344.362 132.095 344.174 131.897C343.986 131.699 343.881 131.437 343.881 131.164C343.881 130.891 343.986 130.629 344.174 130.431C344.362 130.233 344.62 130.116 344.892 130.102H347.013ZM334.288 130.102C334.56 130.116 334.817 130.233 335.006 130.431C335.194 130.629 335.299 130.891 335.299 131.164C335.299 131.437 335.194 131.699 335.006 131.897C334.817 132.095 334.56 132.212 334.288 132.226H332.164C331.892 132.212 331.635 132.095 331.446 131.897C331.258 131.699 331.153 131.437 331.153 131.164C331.153 130.891 331.258 130.629 331.446 130.431C331.635 130.233 331.892 130.116 332.164 130.102H334.288ZM321.56 130.102C321.832 130.116 322.09 130.233 322.278 130.431C322.466 130.629 322.571 130.891 322.571 131.164C322.571 131.437 322.466 131.699 322.278 131.897C322.09 132.095 321.832 132.212 321.56 132.226H319.436C319.164 132.212 318.907 132.095 318.718 131.897C318.53 131.699 318.425 131.437 318.425 131.164C318.425 130.891 318.53 130.629 318.718 130.431C318.907 130.233 319.164 130.116 319.436 130.102H321.56Z" fill="#C1DFF4"/>
<path d="M387.625 123.624H304.976V125.589H387.625V123.624Z" fill="#A5CDED"/>
<path fill-rule="evenodd" clip-rule="evenodd" d="M306.709 165.617C306.428 165.617 306.158 165.506 305.959 165.307C305.76 165.108 305.648 164.838 305.648 164.557C305.648 164.276 305.76 164.006 305.959 163.807C306.158 163.608 306.428 163.497 306.709 163.497H308.832C309.114 163.497 309.383 163.608 309.582 163.807C309.781 164.006 309.893 164.276 309.893 164.557C309.893 164.838 309.781 165.108 309.582 165.307C309.383 165.506 309.114 165.617 308.832 165.617H306.709ZM385.2 163.497C385.481 163.497 385.751 163.608 385.949 163.807C386.148 164.006 386.26 164.276 386.26 164.557C386.26 164.838 386.148 165.108 385.949 165.307C385.751 165.506 385.481 165.617 385.2 165.617H383.079C382.939 165.617 382.802 165.59 382.673 165.537C382.544 165.483 382.427 165.405 382.329 165.307C382.23 165.208 382.152 165.091 382.099 164.963C382.046 164.834 382.018 164.696 382.018 164.557C382.018 164.418 382.046 164.28 382.099 164.151C382.152 164.023 382.23 163.906 382.329 163.807C382.427 163.709 382.544 163.631 382.673 163.577C382.802 163.524 382.939 163.497 383.079 163.497H385.2ZM372.469 163.497C372.609 163.497 372.746 163.524 372.875 163.577C373.004 163.631 373.121 163.709 373.219 163.807C373.318 163.906 373.396 164.023 373.449 164.151C373.502 164.28 373.53 164.418 373.53 164.557C373.53 164.696 373.502 164.834 373.449 164.963C373.396 165.091 373.318 165.208 373.219 165.307C373.121 165.405 373.004 165.483 372.875 165.537C372.746 165.59 372.609 165.617 372.469 165.617H370.351C370.07 165.617 369.8 165.506 369.601 165.307C369.402 165.108 369.29 164.838 369.29 164.557C369.29 164.276 369.402 164.006 369.601 163.807C369.8 163.608 370.07 163.497 370.351 163.497H372.469ZM359.741 163.497C359.881 163.497 360.019 163.524 360.147 163.577C360.276 163.631 360.393 163.709 360.491 163.807C360.59 163.906 360.668 164.023 360.721 164.151C360.774 164.28 360.802 164.418 360.802 164.557C360.802 164.696 360.774 164.834 360.721 164.963C360.668 165.091 360.59 165.208 360.491 165.307C360.393 165.405 360.276 165.483 360.147 165.537C360.019 165.59 359.881 165.617 359.741 165.617H357.623C357.484 165.617 357.346 165.59 357.217 165.537C357.088 165.483 356.972 165.405 356.873 165.307C356.775 165.208 356.697 165.091 356.643 164.963C356.59 164.834 356.563 164.696 356.563 164.557C356.563 164.418 356.59 164.28 356.643 164.151C356.697 164.023 356.775 163.906 356.873 163.807C356.972 163.709 357.088 163.631 357.217 163.577C357.346 163.524 357.484 163.497 357.623 163.497H359.741ZM347.013 163.497C347.153 163.497 347.291 163.524 347.419 163.577C347.548 163.631 347.665 163.709 347.763 163.807C347.862 163.906 347.94 164.023 347.993 164.151C348.046 164.28 348.074 164.418 348.074 164.557C348.074 164.696 348.046 164.834 347.993 164.963C347.94 165.091 347.862 165.208 347.763 165.307C347.665 165.405 347.548 165.483 347.419 165.537C347.291 165.59 347.153 165.617 347.013 165.617H344.893C344.611 165.617 344.342 165.506 344.143 165.307C343.944 165.108 343.832 164.838 343.832 164.557C343.832 164.276 343.944 164.006 344.143 163.807C344.342 163.608 344.611 163.497 344.893 163.497H347.013ZM334.288 163.497C334.427 163.497 334.565 163.524 334.694 163.577C334.823 163.631 334.939 163.709 335.038 163.807C335.136 163.906 335.215 164.023 335.268 164.151C335.321 164.28 335.349 164.418 335.349 164.557C335.349 164.696 335.321 164.834 335.268 164.963C335.215 165.091 335.136 165.208 335.038 165.307C334.939 165.405 334.823 165.483 334.694 165.537C334.565 165.59 334.427 165.617 334.288 165.617H332.165C331.883 165.617 331.614 165.506 331.415 165.307C331.216 165.108 331.104 164.838 331.104 164.557C331.104 164.276 331.216 164.006 331.415 163.807C331.614 163.608 331.883 163.497 332.165 163.497H334.288ZM321.56 163.497C321.699 163.497 321.837 163.524 321.966 163.577C322.095 163.631 322.212 163.709 322.31 163.807C322.408 163.906 322.487 164.023 322.54 164.151C322.593 164.28 322.621 164.418 322.621 164.557C322.621 164.696 322.593 164.834 322.54 164.963C322.487 165.091 322.408 165.208 322.31 165.307C322.212 165.405 322.095 165.483 321.966 165.537C321.837 165.59 321.699 165.617 321.56 165.617H319.437C319.156 165.617 318.886 165.506 318.687 165.307C318.488 165.108 318.376 164.838 318.376 164.557C318.376 164.276 318.488 164.006 318.687 163.807C318.886 163.608 319.156 163.497 319.437 163.497H321.56Z" fill="#C1DFF4"/>
<path d="M387.625 157.018H304.976V158.983H387.625V157.018Z" fill="#A5CDED"/>
<path fill-rule="evenodd" clip-rule="evenodd" d="M285.593 42.3574C286.451 42.3574 287.291 42.612 288.004 43.089C288.718 43.566 289.274 44.2439 289.603 45.0371C289.931 45.8302 290.017 46.703 289.849 47.5449C289.682 48.3868 289.268 49.1601 288.661 49.767C288.054 50.3738 287.28 50.7869 286.438 50.9541C285.596 51.1213 284.723 51.035 283.93 50.7061C283.137 50.3773 282.46 49.8206 281.983 49.1066C281.507 48.3926 281.252 47.5532 281.253 46.6948C281.253 46.125 281.365 45.5608 281.583 45.0344C281.801 44.508 282.121 44.0297 282.524 43.6269C282.927 43.2241 283.406 42.9047 283.932 42.6869C284.459 42.469 285.023 42.3571 285.593 42.3574Z" fill="white"/>
<path fill-rule="evenodd" clip-rule="evenodd" d="M299.659 42.3574C300.517 42.3569 301.357 42.6111 302.071 43.0878C302.785 43.5645 303.342 44.2422 303.67 45.0353C303.999 45.8284 304.085 46.7013 303.918 47.5434C303.751 48.3854 303.337 49.159 302.73 49.7661C302.123 50.3732 301.35 50.7865 300.507 50.9539C299.665 51.1213 298.792 51.0351 297.999 50.7063C297.206 50.3776 296.528 49.8209 296.052 49.1068C295.575 48.3928 295.321 47.5533 295.321 46.6948C295.321 45.5444 295.778 44.4412 296.592 43.6278C297.405 42.8144 298.508 42.3574 299.659 42.3574Z" fill="white"/>
<path fill-rule="evenodd" clip-rule="evenodd" d="M313.726 42.3574C314.585 42.3569 315.424 42.6111 316.138 43.0878C316.852 43.5645 317.409 44.2422 317.738 45.0353C318.067 45.8284 318.153 46.7013 317.985 47.5434C317.818 48.3854 317.405 49.159 316.798 49.7661C316.19 50.3732 315.417 50.7865 314.575 50.9539C313.733 51.1213 312.86 51.0351 312.067 50.7063C311.274 50.3776 310.596 49.8209 310.119 49.1068C309.642 48.3928 309.388 47.5533 309.389 46.6948C309.389 46.1252 309.501 45.5612 309.719 45.035C309.937 44.5087 310.256 44.0306 310.659 43.6278C311.062 43.225 311.54 42.9056 312.066 42.6876C312.593 42.4696 313.157 42.3574 313.726 42.3574Z" fill="white"/>
<path fill-rule="evenodd" clip-rule="evenodd" d="M320.603 168.02C320.218 167.791 320.049 167.265 319.878 166.899C319.556 166.202 319.316 165.466 319.019 164.756C318.635 163.832 318.029 163.018 317.256 162.383C315.426 160.862 313.825 159.085 312.503 157.106C312.205 156.671 311.928 156.351 311.341 156.64C311.095 156.729 310.894 156.911 310.782 157.146C310.669 157.382 310.654 157.653 310.739 157.9C311.014 159.159 311.948 159.998 312.611 161.01C312.863 161.381 313.205 161.713 313.067 162.225C312.835 163.076 312.364 163.643 311.399 163.675C310.158 163.718 308.966 163.423 307.818 163.038C304.964 162.104 302.765 160.718 299.886 160.119C299.397 160.018 298.777 159.955 298.601 160.623C298.455 161.179 298.739 161.61 299.266 161.867C299.727 162.094 300.165 162.371 300.641 162.554C302.128 163.157 303.546 163.917 304.87 164.821C305.122 164.983 305.435 165.098 305.321 165.459C305.19 165.892 304.8 165.758 304.505 165.711C302.295 165.317 300.119 164.756 297.994 164.033C297.645 163.868 297.266 163.775 296.881 163.758C296.143 163.804 295.928 164.229 296.09 164.869C296.251 165.509 296.75 165.862 297.349 166.073C299.505 166.829 301.654 167.585 303.807 168.325C304.142 168.438 304.546 168.471 304.485 168.965C304.425 169.459 303.981 169.254 303.729 169.265C302.222 169.305 300.714 169.186 299.231 168.912C298.606 168.804 297.719 168.504 297.508 169.416C297.316 170.224 298.145 170.456 298.747 170.768C300.472 171.657 302.402 171.33 304.208 171.736L305.155 171.947C303.896 172.451 302.757 172.433 301.629 172.521C301.037 172.567 300.117 172.335 300.13 173.277C300.13 174.088 300.979 174.06 301.598 174.201C302.287 174.37 303.002 174.4 303.702 174.29C306.737 173.786 309.707 174.154 312.646 174.912C314.011 175.288 315.437 175.395 316.843 175.227C317.447 175.146 317.964 174.798 318.8 175.403C319.414 175.812 320.054 176.182 320.714 176.511C321.125 176.72 321.47 176.511 321.754 176.242C323.427 174.625 324.362 172.715 324.15 170.317C324.074 169.464 323.712 168.877 322.86 168.615C322.422 168.464 320.822 168.149 320.603 168.02Z" fill="#F29E65"/>
<path fill-rule="evenodd" clip-rule="evenodd" d="M313.774 163.26C312.992 166.496 313.704 168.648 315.91 169.718C314.478 168.109 313.766 165.957 313.774 163.26Z" fill="#F29E65"/>
<path fill-rule="evenodd" clip-rule="evenodd" d="M354.172 326.138C357.877 329.576 361.917 330.788 365.739 328.881C365.345 327.292 365.167 325.658 365.21 324.022C361.907 325.13 357.955 324.4 354.472 322.876C354.454 323.969 354.354 325.06 354.172 326.138Z" fill="#F4AE7C"/>
<path fill-rule="evenodd" clip-rule="evenodd" d="M329.824 336.923C338.006 342.968 351.043 336.256 367.945 336.054C368.252 331.873 367.607 329.989 366.041 327.528C361.665 330.231 357.864 329.543 353.638 325.483C352.401 326.118 346.439 331.714 342.507 333.039C336.011 335.195 330.927 333.462 329.824 336.923Z" fill="#434343"/>
<path fill-rule="evenodd" clip-rule="evenodd" d="M367.927 336.172C364.289 336.239 360.66 336.55 357.063 337.104C353.834 337.575 350.628 338.185 347.406 338.714C344.635 339.17 341.769 339.583 338.953 339.59C336.477 339.59 333.985 339.273 331.686 338.218C330.948 337.877 330.243 337.467 329.582 336.994C329.33 337.684 329.411 337.961 329.469 338.59C334.645 343.419 348.97 340.24 355.547 338.943L355.58 339.58H368.36C368.327 338.438 368.219 337.298 368.036 336.17L367.927 336.172Z" fill="#434343"/>
<path fill-rule="evenodd" clip-rule="evenodd" d="M329.824 336.923C329.803 336.91 329.78 336.902 329.756 336.899C329.731 336.895 329.706 336.897 329.683 336.904C329.659 336.91 329.637 336.922 329.618 336.937C329.599 336.953 329.584 336.972 329.572 336.994C330.233 337.467 330.938 337.877 331.676 338.218C333.975 339.273 336.461 339.598 338.942 339.59C341.759 339.59 344.62 339.17 347.396 338.714C350.617 338.185 353.824 337.575 357.053 337.104C360.649 336.55 364.279 336.239 367.917 336.172H368.025C368.027 336.146 368.018 336.119 368.001 336.098C367.985 336.077 367.961 336.062 367.935 336.057C351.043 336.256 338.011 342.956 329.824 336.923Z" fill="white"/>
<path fill-rule="evenodd" clip-rule="evenodd" d="M400.089 325.775C404.263 328.626 408.439 329.226 411.928 326.783C411.366 325.523 409.832 321.022 409.563 319.143C406.462 320.73 403.565 323.503 399.893 322.516C400.04 323.596 400.105 324.685 400.089 325.775Z" fill="#F4AE7C"/>
<path fill-rule="evenodd" clip-rule="evenodd" d="M377.61 340.057C386.595 344.81 398.497 336.246 415.182 333.541C414.865 329.359 413.945 327.591 412.031 325.39C408.104 328.712 404.247 328.599 399.464 325.208C398.333 326.017 393.265 332.44 389.575 334.319C383.472 337.427 378.19 336.47 377.61 340.057Z" fill="#434343"/>
<path fill-rule="evenodd" clip-rule="evenodd" d="M415.182 333.659C411.594 334.265 408.05 335.111 404.575 336.193C401.452 337.14 398.371 338.208 395.255 339.215C392.578 340.077 389.812 340.911 387.029 341.336C384.575 341.709 382.066 341.757 379.636 341.054C378.853 340.83 378.094 340.531 377.369 340.16C377.233 340.875 377.341 341.14 377.492 341.754C383.326 345.762 397.021 340.495 403.333 338.228L403.459 338.855L416.099 336.959C415.897 335.833 415.62 334.723 415.27 333.634L415.182 333.659Z" fill="#434343"/>
<path fill-rule="evenodd" clip-rule="evenodd" d="M377.61 340.057C377.589 340.048 377.565 340.044 377.542 340.045C377.519 340.046 377.496 340.051 377.475 340.061C377.453 340.071 377.435 340.085 377.419 340.103C377.403 340.12 377.391 340.14 377.384 340.162C378.109 340.533 378.868 340.832 379.651 341.057C382.081 341.759 384.59 341.711 387.044 341.339C389.814 340.913 392.585 340.079 395.27 339.218C398.379 338.21 401.459 337.14 404.59 336.195C408.065 335.114 411.609 334.267 415.197 333.661L415.3 333.644C415.298 333.617 415.286 333.593 415.267 333.574C415.249 333.556 415.224 333.545 415.197 333.543C398.497 336.246 386.595 344.81 377.61 340.057Z" fill="white"/>
<path fill-rule="evenodd" clip-rule="evenodd" d="M357.658 123.553C358.252 122.14 358.121 121.495 357.489 120.637C355.819 119.74 358.018 109.677 365.045 107.907C380.516 104.065 387.637 113.244 382.146 125.83C380.04 130.616 382.343 134.78 382.902 135.976C381.894 136.422 373.605 146.449 373.605 146.449C373.605 146.449 371.008 144.502 370.214 142.538C369.982 141.973 369.438 141.933 368.982 141.233C368.539 140.608 368.539 138.951 368.071 138.313L367.794 137.961C366.908 137.796 366.001 137.777 365.108 137.905C363.597 138.072 361.058 138.956 359.615 138.087C358.476 137.296 359.028 135.51 358.927 134.906C358.826 134.301 358.693 133.868 358.02 133.276C357.401 132.618 357.99 131.455 358.149 131.483C357.864 131.231 357.03 130.702 357.479 130.223C357.831 129.525 358.046 129.095 356.393 128.659C355.008 127.981 355.335 127.354 355.683 126.964C356.751 125.77 357.066 124.997 357.658 123.553Z" fill="#F4BD97"/>
<path fill-rule="evenodd" clip-rule="evenodd" d="M377.534 122.891C377.552 121.972 377.053 121.302 376.494 121.198C375.738 121.108 374.942 121.725 374.408 122.674C373.877 123.699 373.859 124.475 373.882 125.742C373.893 126.109 373.781 126.469 373.564 126.765C373.346 127.061 373.036 127.275 372.683 127.374C372.683 127.374 372.161 127.689 372.431 128.095C372.7 128.5 373.136 127.843 373.605 127.876C374.073 127.908 374.763 128.291 375.95 127.294C377.136 126.296 377.461 124.657 377.519 123.455L377.534 122.891Z" fill="#EF8F7A"/>
<path fill-rule="evenodd" clip-rule="evenodd" d="M374.583 126.828C374.743 126.344 374.752 125.823 374.608 125.334C374.479 124.868 374.164 124.607 374.479 124.075C374.521 124.003 374.582 123.943 374.654 123.902C374.727 123.86 374.809 123.838 374.892 123.838C374.976 123.838 375.058 123.86 375.13 123.902C375.203 123.943 375.263 124.003 375.305 124.075C375.51 124.425 375.599 124.831 375.557 125.234C375.557 125.455 375.52 125.675 375.489 125.889C375.474 125.989 375.399 126.211 375.441 126.302C375.525 126.481 375.593 126.14 375.613 126.05C375.693 125.679 375.726 125.3 375.711 124.921C375.678 124.304 375.331 123.949 375.366 123.322C375.444 121.909 376.585 121.531 377.207 122.209C377.374 122.648 377.474 123.11 377.502 123.579C377.504 123.539 377.504 123.5 377.502 123.46L377.514 122.896C377.532 121.977 377.033 121.307 376.474 121.204C375.719 121.113 374.923 121.73 374.389 122.68C373.857 123.705 373.839 124.481 373.862 125.748C373.862 126.03 373.793 126.309 373.662 126.559C373.53 126.809 373.34 127.023 373.106 127.183C373.583 127.599 374.268 127.564 374.583 126.828Z" fill="#EE8570"/>
<path fill-rule="evenodd" clip-rule="evenodd" d="M375.952 127.294C377.028 126.392 377.385 124.964 377.496 123.808C376.645 127.083 374.637 127.823 374.139 127.962C374.572 128.014 375.151 127.972 375.952 127.294Z" fill="#EC725D"/>
<path fill-rule="evenodd" clip-rule="evenodd" d="M377.537 122.891C377.558 121.979 377.132 121.322 376.573 121.128C375.925 120.909 375.18 121.473 374.676 122.115C374.12 122.89 373.816 123.818 373.807 124.772C373.784 125.357 373.875 125.936 373.643 126.473C373.554 126.677 373.422 126.858 373.254 127.005C373.087 127.152 372.89 127.26 372.676 127.321C372.638 127.321 372.646 127.422 372.676 127.417C372.971 127.357 373.243 127.212 373.457 127C373.672 126.788 373.819 126.518 373.883 126.223C373.958 125.774 373.981 125.318 373.951 124.863C373.954 124.355 374.033 123.851 374.185 123.367C374.52 122.359 375.192 121.637 375.888 121.352C376.643 121.052 377.495 121.604 377.527 122.863L377.537 122.891Z" fill="#EC725D"/>
<path fill-rule="evenodd" clip-rule="evenodd" d="M366.59 112C361.165 114.473 358.238 114.41 355.175 109.481C360.245 110.771 361.235 103.302 372.253 104.595C371.248 104.135 370.175 103.842 369.076 103.728C372.414 103.509 376.953 104.131 379.167 107.617C382.094 108.942 382.681 109.395 384.457 111.972C383.933 111.515 383.352 111.127 382.729 110.819C385.013 113.252 385.709 115.551 384.568 119.607C383.862 122.125 382.429 125.576 381.359 128.773C379.699 128.062 378.049 126.992 377.701 126.12C378.293 124.478 378.311 122.685 377.701 121.491C377.031 120.188 375.641 120.188 374.537 121.41C372.973 123.483 373.631 126.196 371.58 126.972C370.93 124.103 370.774 121.957 368.409 120.443C367.401 119.798 366.883 119.153 367.749 116.007L367.087 117.38C367.578 114.859 367.359 114.289 366.59 112Z" fill="#434343"/>
<path fill-rule="evenodd" clip-rule="evenodd" d="M367.041 137.853C369.728 136.956 371.911 135.02 373.59 132.044C372.358 136.679 371.692 140.41 371.593 143.238C371.369 143.428 371.15 143.607 370.935 143.774C370.65 143.394 370.413 142.98 370.227 142.543C369.996 141.976 369.452 141.938 368.996 141.238C368.552 140.613 368.552 138.956 368.084 138.319L367.807 137.966C367.554 137.914 367.298 137.876 367.041 137.853Z" fill="#F29E65"/>
<path fill-rule="evenodd" clip-rule="evenodd" d="M376.709 145.107C376.709 145.107 369.386 149.618 362.265 161.013C357.459 166.97 352.565 175.118 352.565 175.118C352.565 175.118 340.613 172.655 333.205 170.585C325.797 168.514 322.004 167.23 322.004 167.23L318.565 177.065C318.565 177.065 329.397 181.493 337.205 185.241C344.374 188.685 348.711 190.433 356.082 190.153C361.195 189.962 372.762 180.521 376.925 177.055C381.089 173.589 390.316 151.91 376.709 145.107Z" fill="#5697B7"/>
<path fill-rule="evenodd" clip-rule="evenodd" d="M370.613 144.157L386.097 137.424C386.097 137.424 391.107 140.827 394.721 149.011C403.563 169.035 400.958 202.878 400.958 202.878L370.356 204.457C370.356 204.457 363.492 171.007 366.475 159.645C369.457 148.283 370.613 144.157 370.613 144.157Z" fill="#7BAED5"/>
<path fill-rule="evenodd" clip-rule="evenodd" d="M371.955 212.19C371.887 213.177 358.557 247.796 355.932 253.72C353.308 259.644 351.398 263.918 351.945 271.855C352.096 274.079 349.381 324.659 349.381 324.659C355.378 327.561 362.209 328.102 369.303 327.916C369.303 327.916 373.804 277.913 371.57 268.777C371.358 264.651 391.527 243.997 389.625 224.819C389.202 220.424 371.955 212.19 371.955 212.19Z" fill="#58556E"/>
<path fill-rule="evenodd" clip-rule="evenodd" d="M370.872 215.351C368.036 233.065 368.276 251.135 371.582 268.767C372.534 266.873 373.485 264.979 374.433 263.085C373.248 247.174 372.061 231.263 370.872 215.351Z" fill="#3A384D"/>
<path fill-rule="evenodd" clip-rule="evenodd" d="M401.101 207.087C406.642 220.331 403.229 227.439 398.998 238.506C396.015 246.315 394.29 256.984 393.302 266.75C402.066 281.832 411.713 319.045 411.713 319.045C406.765 322.746 401.055 325.299 394.998 326.518C394.998 326.518 380.852 290.28 375.602 268.556C371.874 245.771 370.564 208.661 370.564 208.661L401.101 207.087Z" fill="#58556E"/>
<path fill-rule="evenodd" clip-rule="evenodd" d="M401.275 207.372L370.302 208.941L370.073 204.465L401.222 202.871L401.275 207.372Z" fill="#3A384D"/>
<path fill-rule="evenodd" clip-rule="evenodd" d="M365.915 153.698C365.915 153.698 363.144 169.292 362.655 173.667C362.167 178.042 362.751 199.747 362.655 200.115C362.56 200.482 364.726 205.928 364.726 205.928C364.726 205.928 370.222 201.031 369.764 198.12C369.305 195.208 367.711 154.988 367.711 154.988L365.915 153.698Z" fill="#E77E3A"/>
<path fill-rule="evenodd" clip-rule="evenodd" d="M369.376 146.643C369.376 146.643 366.674 149.935 365.444 152.245C365.179 152.716 364.94 153.201 364.727 153.698C365.681 155.817 367.704 154.97 367.704 154.97L369.278 148.547L369.376 146.643Z" fill="#E77E3A"/>
<path fill-rule="evenodd" clip-rule="evenodd" d="M367.041 143.968L368.52 151.893C368.52 151.893 377.404 144.281 381.552 142.205C386.517 139.719 388.101 138.898 388.101 138.898L383.351 133.425C383.351 133.425 372.895 138.898 367.041 143.968Z" fill="#69A5C9"/>
<path fill-rule="evenodd" clip-rule="evenodd" d="M322.17 166.476L318.565 177.055L322.714 179.027C324.69 175.563 326.151 171.83 327.049 167.945L322.17 166.476Z" fill="#2E7EC1"/>
<path fill-rule="evenodd" clip-rule="evenodd" d="M344.998 134.835C341.744 182.803 330.195 235.962 277.334 249.715L276.021 250.057L274.709 249.715C221.845 235.962 210.304 182.803 207.044 134.835L206.729 130.216L211.284 129.359C233.326 125.228 253.54 116.967 273.848 107.645L276.021 106.637L278.195 107.645C298.5 116.964 318.714 125.228 340.757 129.359L345.313 130.216L344.998 134.835Z" fill="#E77E3A"/>
<path fill-rule="evenodd" clip-rule="evenodd" d="M339.799 134.306C318.013 130.223 298.58 122.564 276.021 112.207C253.46 122.564 234.029 130.223 212.243 134.306C216.692 199.825 236.12 234.116 276.021 244.499C315.923 234.129 335.351 199.825 339.799 134.306Z" fill="#F3BE9C"/>
<path fill-rule="evenodd" clip-rule="evenodd" d="M329.666 141.885C311.026 137.515 293.537 130.566 276.013 122.654C258.495 130.566 241.021 137.515 222.361 141.885C224.983 171.025 232.084 207.054 256.029 224.877C262.074 229.378 268.825 232.519 276.008 234.632C283.19 232.519 289.94 229.378 295.986 224.877C319.943 207.054 327.046 171.025 329.666 141.885Z" fill="#FDF2EC"/>
<path fill-rule="evenodd" clip-rule="evenodd" d="M329.666 141.885C311.026 137.515 293.54 130.566 276.014 122.654V234.632C283.195 232.519 289.946 229.378 295.993 224.875C319.943 207.054 327.046 171.025 329.666 141.885Z" fill="#FBE5D8"/>
<path fill-rule="evenodd" clip-rule="evenodd" d="M254.351 172.673L276.477 197.485L315.305 147.933L319.965 151.575L278.945 203.916L276.759 206.707L274.401 204.067L249.923 176.612L254.351 172.673Z" fill="#E77E3A"/>
<path fill-rule="evenodd" clip-rule="evenodd" d="M383.159 145.583C378.192 144.596 374.343 154.963 368.008 165.217C363.978 171.731 359.167 180.373 359.167 180.373C352.711 178.627 337.001 175.839 327.809 174.327L325.633 184.519C335.29 187.34 357.068 195.493 364.799 194.221C369.849 193.387 378.572 180.03 382.272 176.086C389.927 165.854 398.106 150.235 383.159 145.583Z" fill="#69A5C9"/>
<path fill-rule="evenodd" clip-rule="evenodd" d="M326.424 175.264C326.036 175.033 325.87 174.509 325.698 174.144C325.373 173.446 325.137 172.708 324.839 172C324.456 171.076 323.85 170.261 323.076 169.627C321.24 168.11 319.633 166.335 318.305 164.358C318.011 163.917 317.731 163.602 317.147 163.892C316.903 163.983 316.703 164.165 316.591 164.4C316.478 164.635 316.461 164.904 316.542 165.152C316.819 166.411 317.754 167.247 318.416 168.26C318.668 168.632 319.008 168.965 318.87 169.474C318.64 170.328 318.167 170.894 317.202 170.927C315.981 170.926 314.769 170.71 313.623 170.29C310.769 169.355 308.57 167.97 305.688 167.371C305.202 167.267 304.582 167.207 304.404 167.874C304.258 168.434 304.542 168.864 305.071 169.134C305.532 169.36 305.968 169.637 306.444 169.821C307.931 170.424 309.348 171.184 310.673 172.088C310.925 172.252 311.237 172.368 311.127 172.728C310.993 173.161 310.605 173.023 310.31 172.98C308.1 172.589 305.924 172.029 303.799 171.305C303.436 171.182 303.091 171.005 302.686 171.03C301.945 171.073 301.734 171.499 301.892 172.141C302.051 172.783 302.552 173.134 303.167 173.345C305.321 174.101 307.469 174.856 309.625 175.594C309.96 175.71 310.363 175.741 310.303 176.234C310.242 176.728 309.799 176.526 309.547 176.536C308.039 176.577 306.531 176.458 305.048 176.181C304.426 176.076 303.537 175.776 303.326 176.685C303.134 177.496 303.965 177.728 304.565 178.038C306.29 178.927 308.22 178.602 310.026 179.007L310.973 179.219C309.713 179.723 308.575 179.703 307.446 179.791C306.855 179.839 305.935 179.607 305.935 180.546C305.935 181.355 306.786 181.33 307.404 181.471C308.093 181.639 308.809 181.669 309.509 181.559C312.532 181.055 315.512 181.423 318.454 182.181C319.818 182.556 321.243 182.663 322.648 182.496C323.255 182.415 323.771 182.065 324.605 182.67C325.219 183.08 325.858 183.45 326.519 183.778C326.93 183.99 327.275 183.778 327.562 183.511C329.235 181.891 330.169 179.985 329.958 177.587C329.882 176.733 329.519 176.146 328.668 175.884C328.23 175.708 326.63 175.393 326.424 175.264Z" fill="#F4BD97"/>
<path fill-rule="evenodd" clip-rule="evenodd" d="M328.041 173.038L324.346 184.715L329.993 186.571C331.303 182.483 332.988 178.571 333.63 174.305L328.041 173.038Z" fill="#69A5C9"/>
<path d="M153.899 51.7476H145.015V69.9635H153.899V51.7476Z" fill="white"/>
<path d="M169.87 46.5938H160.986V69.9631H169.87V46.5938Z" fill="white"/>
<path d="M185.845 41.4404H176.964V69.9608H185.845V41.4404Z" fill="white"/>
<path fill-rule="evenodd" clip-rule="evenodd" d="M79.707 4.12475L83.6717 0.525391L233.522 4.12475V80.9808H79.707V4.12475Z" fill="#F3BE9C"/>
<path d="M237.487 0.525391H83.6719V77.3814H237.487V0.525391Z" fill="#FBE5D8"/>
<path fill-rule="evenodd" clip-rule="evenodd" d="M199.996 42.358C202.796 42.358 205.532 41.5279 207.86 39.9728C210.187 38.4176 212.001 36.2072 213.073 33.621C214.144 31.0349 214.424 28.1892 213.878 25.4438C213.332 22.6983 211.984 20.1765 210.004 18.1971C208.025 16.2178 205.503 14.8698 202.758 14.3237C200.012 13.7776 197.166 14.0579 194.58 15.1291C191.994 16.2003 189.783 18.0144 188.228 20.3418C186.673 22.6693 185.843 25.4057 185.843 28.2049C185.85 31.9563 187.344 35.5519 189.996 38.2046C192.649 40.8572 196.245 42.3507 199.996 42.358Z" fill="white"/>
<path fill-rule="evenodd" clip-rule="evenodd" d="M99.8159 54.0345C99.2657 54.0155 98.7444 53.7837 98.3619 53.3878C97.9794 52.9919 97.7656 52.4629 97.7656 51.9124C97.7656 51.3619 97.9794 50.833 98.3619 50.4371C98.7444 50.0412 99.2657 49.8093 99.8159 49.7903H153.418C153.702 49.7805 153.986 49.8281 154.252 49.9304C154.518 50.0326 154.761 50.1873 154.966 50.3853C155.171 50.5834 155.334 50.8206 155.445 51.083C155.557 51.3453 155.614 51.6274 155.614 51.9124C155.614 52.1974 155.557 52.4795 155.445 52.7418C155.334 53.0042 155.171 53.2414 154.966 53.4395C154.761 53.6375 154.518 53.7922 154.252 53.8945C153.986 53.9967 153.702 54.0443 153.418 54.0345H99.8159Z" fill="white"/>
<path fill-rule="evenodd" clip-rule="evenodd" d="M92.3797 61.4902C91.8172 61.4902 91.2777 61.2667 90.88 60.869C90.4822 60.4713 90.2588 59.9318 90.2588 59.3694C90.2588 58.8069 90.4822 58.2674 90.88 57.8697C91.2777 57.472 91.8172 57.2485 92.3797 57.2485H154.195C154.758 57.2485 155.297 57.472 155.695 57.8697C156.093 58.2674 156.316 58.8069 156.316 59.3694C156.316 59.9318 156.093 60.4713 155.695 60.869C155.297 61.2667 154.758 61.4902 154.195 61.4902H92.3797Z" fill="white"/>
<path fill-rule="evenodd" clip-rule="evenodd" d="M175.868 54.8784C175.317 54.8595 174.796 54.6276 174.414 54.2317C174.031 53.8358 173.817 53.3068 173.817 52.7564C173.817 52.2059 174.031 51.6769 174.414 51.281C174.796 50.8851 175.317 50.6532 175.868 50.6343H229.469C230.02 50.6532 230.541 50.8851 230.923 51.281C231.306 51.6769 231.52 52.2059 231.52 52.7564C231.52 53.3068 231.306 53.8358 230.923 54.2317C230.541 54.6276 230.02 54.8595 229.469 54.8784H175.868Z" fill="white"/>
<path fill-rule="evenodd" clip-rule="evenodd" d="M168.432 62.3315C167.87 62.3315 167.33 62.1081 166.933 61.7103C166.535 61.3126 166.312 60.7732 166.312 60.2107C166.312 59.6482 166.535 59.1088 166.933 58.711C167.33 58.3133 167.87 58.0898 168.432 58.0898H230.248C230.811 58.0898 231.35 58.3133 231.748 58.711C232.146 59.1088 232.369 59.6482 232.369 60.2107C232.369 60.7732 232.146 61.3126 231.748 61.7103C231.35 62.1081 230.811 62.3315 230.248 62.3315H168.432Z" fill="white"/>
<path fill-rule="evenodd" clip-rule="evenodd" d="M123.286 42.358C126.086 42.358 128.822 41.5279 131.15 39.9728C133.477 38.4176 135.291 36.2072 136.363 33.621C137.434 31.0349 137.714 28.1892 137.168 25.4438C136.622 22.6983 135.274 20.1765 133.294 18.1971C131.315 16.2178 128.793 14.8698 126.048 14.3237C123.302 13.7776 120.456 14.0579 117.87 15.1291C115.284 16.2003 113.073 18.0144 111.518 20.3418C109.963 22.6693 109.133 25.4057 109.133 28.2049C109.14 31.9563 110.634 35.5519 113.286 38.2046C115.939 40.8572 119.535 42.3507 123.286 42.358Z" fill="white"/>
<path fill-rule="evenodd" clip-rule="evenodd" d="M142.06 132.062C152.211 132.062 160.559 140.409 160.559 150.558V166.096H172.309C172.448 166.096 172.584 166.096 172.72 166.096V150.558C172.72 133.697 158.924 119.899 142.06 119.899H122.665C105.803 119.899 92.0049 133.697 92.0049 150.558V166.101C92.1409 166.101 92.2794 166.101 92.4155 166.101H104.169V150.558C104.169 140.409 112.516 132.062 122.665 132.062H142.06Z" fill="#7BAED5"/>
<path fill-rule="evenodd" clip-rule="evenodd" d="M92.9243 166.096H172.818C175.78 166.105 178.618 167.285 180.712 169.379C182.807 171.473 183.988 174.31 183.997 177.272V233.824C183.988 236.786 182.808 239.624 180.713 241.719C178.619 243.813 175.78 244.994 172.818 245.003H92.9243C89.9626 244.993 87.1249 243.812 85.0309 241.718C82.9369 239.624 81.7567 236.786 81.748 233.824V177.272C81.7567 174.311 82.937 171.473 85.031 169.379C87.1251 167.285 89.9628 166.105 92.9243 166.096Z" fill="#BAD9F2"/>
<path d="M170.782 166.096H90.8858C84.7119 166.096 79.707 171.101 79.707 177.275V233.824C79.707 239.998 84.7119 245.003 90.8858 245.003H170.782C176.956 245.003 181.961 239.998 181.961 233.824V177.275C181.961 171.101 176.956 166.096 170.782 166.096Z" fill="#7BAED5"/>
<path fill-rule="evenodd" clip-rule="evenodd" d="M174.253 170.816C175.425 172.672 176.044 174.823 176.039 177.018V181.892H79.7071V177.018C79.7011 174.823 80.3196 172.672 81.4904 170.816H174.253Z" fill="#BAD9F2"/>
<path fill-rule="evenodd" clip-rule="evenodd" d="M140.531 132.062C150.679 132.062 159.027 140.409 159.027 150.558V166.096H170.777C170.916 166.096 171.052 166.096 171.191 166.096V150.558C171.191 133.697 157.395 119.899 140.531 119.899H121.135C104.274 119.899 90.4756 133.697 90.4756 150.558V166.101C90.6141 166.101 90.7527 166.101 90.8887 166.101H102.639V150.558C102.639 140.409 110.987 132.062 121.135 132.062H140.531Z" fill="#7BAED5"/>
<path fill-rule="evenodd" clip-rule="evenodd" d="M95.6772 170.829H165.989C168.591 170.839 171.084 171.878 172.924 173.718C174.764 175.557 175.802 178.05 175.813 180.652V230.418C175.806 232.861 174.893 235.213 173.252 237.022C171.61 238.83 169.356 239.966 166.926 240.209C167.912 238.65 168.436 236.844 168.437 235V185.249C168.43 182.644 167.393 180.148 165.553 178.305C163.713 176.462 161.218 175.422 158.614 175.41H88.2943C87.9744 175.41 87.6571 175.425 87.3447 175.456C88.2285 174.042 89.4566 172.876 90.9139 172.067C92.3713 171.258 94.0102 170.832 95.6772 170.829Z" fill="#BAD9F2"/>
<path fill-rule="evenodd" clip-rule="evenodd" d="M134.551 203.321L139.085 224.371H123.559L128.092 203.321C126.374 202.579 124.963 201.268 124.099 199.607C123.235 197.946 122.97 196.039 123.349 194.205C123.728 192.372 124.727 190.726 126.179 189.544C127.63 188.361 129.445 187.716 131.317 187.716C133.189 187.716 135.003 188.361 136.455 189.544C137.906 190.726 138.906 192.372 139.284 194.205C139.663 196.039 139.398 197.946 138.534 199.607C137.67 201.268 136.26 202.579 134.541 203.321H134.551Z" fill="#BAD9F2"/>
<path fill-rule="evenodd" clip-rule="evenodd" d="M116.974 236.957C116.056 238.144 114.878 239.106 113.531 239.768C112.184 240.43 110.704 240.776 109.203 240.778H94.6591C92.0521 240.77 89.5542 239.731 87.7108 237.888C85.8674 236.044 84.8283 233.546 84.8203 230.94V220.386C84.8232 219.055 85.0964 217.739 85.6234 216.517C86.1503 215.295 86.92 214.193 87.8858 213.278V225.748C87.8858 231.912 92.6717 236.957 98.4978 236.957H116.974Z" fill="white"/>
</g>
<defs>
<clipPath id="clip0_139_1765">
<rect width="477" height="344.949" fill="white" transform="translate(0 0.525391)"/>
</clipPath>
</defs>
</svg>
