<svg width="204" height="54" viewBox="0 0 204 54" fill="none" xmlns="http://www.w3.org/2000/svg">
<g clip-path="url(#clip0_2753_1028)">
<path d="M2.57608e-05 25.8337C-0.00754889 30.9979 1.65549 36.0232 4.73605 40.1446C7.83149 38.5288 10.4469 37.0031 12.6231 35.6286C18.9684 31.6219 21.6078 28.885 21.6078 28.885C24.1749 26.1017 22.9661 23.4818 22.6018 22.8384C22.5487 22.7409 22.5126 22.6873 22.5126 22.6873C20.7682 18.7464 16.2831 11.7835 16.2831 11.7835C14.9993 9.47294 13.8348 7.09678 12.7944 4.66455C11.8148 2.37119 11.3347 0.904025 11.2865 0.748047L12.389 4.87902C8.6423 6.91509 5.51185 9.93871 3.33039 13.6284C1.14893 17.3181 -0.00198182 21.536 2.57608e-05 25.8337ZM3.20887 24.988V21.0885H7.81702V16.4336H11.6773V21.0885H16.2855V24.988H11.6773V29.6429H7.81702V24.988H3.20887Z" fill="#E77E3A"/>
<path d="M13.9238 4.11635C14.8406 5.92715 17.6996 9.68768 17.6996 9.68768C21.3524 14.133 24.7977 15.3492 24.7977 15.3492C25.7113 15.8441 26.7122 16.1529 27.7435 16.2582C31.4566 16.541 32.5689 12.7487 32.5689 12.7487C33.1467 11.3162 33.6051 9.83739 33.9392 8.32775C34.2006 7.15713 34.4011 5.97349 34.54 4.78169C34.7402 3.19627 34.8209 1.59777 34.7813 0C34.54 1.96922 33.9561 4.47705 33.9561 4.47705C30.7288 2.8717 27.1791 2.03781 23.5817 2.0399C20.264 2.03536 16.983 2.74141 13.9552 4.11148L13.9238 4.11635ZM25.9871 8.16202C27.6157 7.67459 29.3649 8.79081 29.9174 10.6455C30.4699 12.5002 29.5795 14.406 27.951 14.8886C26.3225 15.3711 24.5733 14.2622 24.0208 12.4027C23.4683 10.5431 24.361 8.64702 25.9895 8.16202H25.9871Z" fill="#E77E3A"/>
<path d="M0.904297 44.5732C1.32169 44.4757 5.84299 43.396 7.03243 42.7892C11.4326 47.177 17.369 49.6336 23.5519 49.6254C24.4556 49.6252 25.3586 49.5732 26.2565 49.4694C25.6075 43.1913 23.8438 34.8928 23.8438 34.8928L29.5112 30.2379C29.9455 35.8628 29.1783 43.9152 28.5462 49.0575C28.5473 49.0664 28.5473 49.0755 28.5462 49.0844C28.2108 51.87 27.9188 53.7905 27.8874 54.0001L29.0552 48.9674C34.1959 47.7158 38.7703 44.7537 42.0424 40.5576C45.3145 36.3615 47.094 31.1755 47.0947 25.8339C47.097 21.7957 46.0809 17.8234 44.142 14.2918C42.2032 10.7603 39.4057 7.78593 36.0133 5.64941C36.0133 5.64941 38.0134 18.035 30.6017 27.0964C30.6017 27.0964 25.1129 35.139 7.56562 42.1044L6.68502 42.448C6.59816 42.4748 3.14566 43.9152 0.904297 44.5732Z" fill="#7AACD4"/>
<path d="M60.0317 40.2809C59.7374 40.3005 59.4423 40.257 59.1657 40.1532C58.8892 40.0495 58.6376 39.8879 58.4273 39.6789C58.0324 39.2202 57.8307 38.6237 57.8651 38.0168V15.3391C57.8651 14.6095 58.0646 14.0498 58.4635 13.6599C58.6855 13.4574 58.9449 13.3015 59.2269 13.2011C59.509 13.1007 59.8079 13.0578 60.1065 13.075C60.6226 13.0477 61.1355 13.1721 61.5831 13.4332C62.0081 13.7499 62.348 14.1688 62.5722 14.6518L71.8006 31.8971H70.5943L79.8227 14.6518C80.0425 14.1729 80.3736 13.7549 80.7878 13.4332C81.2249 13.1724 81.7285 13.0477 82.2354 13.075C82.5287 13.0555 82.8228 13.0974 83.0993 13.198C83.3757 13.2987 83.6287 13.4559 83.8423 13.6599C84.217 14.0498 84.4036 14.6095 84.402 15.3391V38.0168C84.4367 38.6204 84.2426 39.2147 83.8591 39.6789C83.4996 40.081 82.9568 40.2809 82.2354 40.2809C81.9407 40.3005 81.6452 40.2571 81.3683 40.1533C81.0914 40.0496 80.8393 39.8879 80.6286 39.6789C80.2346 39.2198 80.0337 38.6234 80.0688 38.0168V20.54H80.8916L73.0456 34.9923C72.8492 35.3564 72.5825 35.6771 72.2615 35.9354C71.9288 36.1539 71.5358 36.2597 71.1396 36.2377C70.7297 36.2557 70.3246 36.1432 69.9815 35.916C69.6564 35.6698 69.3887 35.3545 69.1974 34.9923L61.2791 20.501H62.1766V38.0095C62.2113 38.6131 62.0172 39.2074 61.6337 39.6716C61.2959 40.0737 60.7555 40.2809 60.0317 40.2809Z" fill="#7AACD4"/>
<path d="M98.7715 40.3495C96.7031 40.3495 94.9218 39.9596 93.4275 39.1797C91.9769 38.4417 90.7748 37.2868 89.9726 35.8603C89.1684 34.424 88.7662 32.7261 88.7662 30.7667C88.7272 29.019 89.1326 27.2904 89.9437 25.7461C90.6955 24.3435 91.8137 23.1761 93.1766 22.3707C94.6135 21.5412 96.2459 21.1201 97.9006 21.1521C99.0956 21.1331 100.283 21.3517 101.394 21.7955C102.403 22.2047 103.31 22.8358 104.048 23.6429C104.808 24.487 105.384 25.4835 105.737 26.5674C106.139 27.8158 106.334 29.1226 106.316 30.4352C106.328 30.6335 106.292 30.8317 106.211 31.0127C106.13 31.1937 106.006 31.3518 105.85 31.4734C105.458 31.7347 104.992 31.8605 104.523 31.8317H92.5324V29.1143H103.03L102.432 29.6821C102.461 28.6884 102.289 27.6991 101.927 26.7746C101.632 26.0453 101.128 25.4216 100.48 24.9833C99.7662 24.5465 98.9419 24.3297 98.1081 24.3594C97.1656 24.3289 96.2356 24.5835 95.4373 25.0905C94.6844 25.5998 94.0969 26.3221 93.7484 27.167C93.3402 28.178 93.143 29.2632 93.1693 30.3548V30.6204C93.1693 32.6823 93.6519 34.2258 94.6169 35.251C95.582 36.2762 96.995 36.7856 98.856 36.7791C99.5908 36.7702 100.323 36.6886 101.042 36.5354C101.847 36.3745 102.622 36.0876 103.339 35.6848C103.749 35.4145 104.231 35.2768 104.721 35.29C105.081 35.3097 105.421 35.4644 105.674 35.7238C105.911 35.9776 106.062 36.3012 106.104 36.6475C106.15 37.0312 106.079 37.4201 105.899 37.7613C105.678 38.1705 105.348 38.5085 104.946 38.7361C104.018 39.3088 103.002 39.7207 101.939 39.9547C100.902 40.2066 99.8388 40.339 98.7715 40.3495Z" fill="#7AACD4"/>
<path d="M117.039 40.3492C115.555 40.3805 114.094 39.9739 112.836 39.1793C111.596 38.3647 110.617 37.2051 110.015 35.8405C109.343 34.3944 109.007 32.6884 109.007 30.7224C109.007 28.7565 109.343 27.0505 110.015 25.6044C110.625 24.2551 111.604 23.1095 112.836 22.3021C114.095 21.5085 115.555 21.102 117.039 21.1322C118.447 21.1007 119.832 21.4954 121.017 22.2655C122.102 22.959 122.915 24.013 123.314 25.2461H122.904V15.4342C122.904 14.6567 123.102 14.0645 123.5 13.6624C123.898 13.2602 124.465 13.0579 125.22 13.0579C125.855 13.0201 126.48 13.2373 126.957 13.6624C127.367 14.0645 127.572 14.6567 127.572 15.4342V37.856C127.572 38.6375 127.373 39.2354 126.974 39.6497C126.575 40.064 126.006 40.2744 125.266 40.2809C124.518 40.2809 123.945 40.0738 123.548 39.6595C123.151 39.2452 122.951 38.6472 122.95 37.8657V34.9192L123.36 36.05C123.003 37.339 122.193 38.4524 121.082 39.1818C119.883 39.9777 118.473 40.385 117.039 40.3492ZM118.346 36.7641C119.203 36.7826 120.047 36.5471 120.773 36.0866C121.504 35.5934 122.071 34.8894 122.4 34.0662C122.815 33.0046 123.012 31.8685 122.979 30.7273C122.979 28.7142 122.555 27.2113 121.707 26.2186C121.294 25.73 120.778 25.3421 120.196 25.0838C119.614 24.8255 118.982 24.7035 118.346 24.727C117.491 24.7095 116.648 24.9386 115.917 25.3875C115.185 25.8707 114.619 26.5692 114.293 27.3884C113.876 28.4497 113.679 29.5861 113.714 30.7273C113.714 32.716 114.137 34.2189 114.983 35.236C115.39 35.7341 115.905 36.1309 116.488 36.3959C117.072 36.6609 117.707 36.7869 118.346 36.7641Z" fill="#7AACD4"/>
<path d="M134.745 17.7472C133.872 17.7472 133.193 17.527 132.709 17.0867C132.463 16.8533 132.272 16.5685 132.147 16.2524C132.022 15.9362 131.966 15.5963 131.985 15.2564C131.985 14.4521 132.226 13.8355 132.709 13.4066C133.191 12.9777 133.87 12.764 134.745 12.7656C135.641 12.7656 136.325 12.9793 136.798 13.4066C137.271 13.8339 137.508 14.4505 137.508 15.2564C137.526 15.595 137.472 15.9337 137.35 16.2495C137.228 16.5653 137.039 16.8508 136.798 17.0867C136.325 17.527 135.641 17.7472 134.745 17.7472ZM134.745 40.2372C133.997 40.2372 133.424 40.0106 133.025 39.5573C132.627 39.1039 132.429 38.4776 132.429 37.6709V23.823C132.429 22.9919 132.627 22.3607 133.025 21.9171C133.423 21.4736 133.99 21.2567 134.745 21.2567C135.064 21.2371 135.384 21.2858 135.683 21.3996C135.983 21.5134 136.255 21.6898 136.482 21.9171C136.892 22.3583 137.097 22.9919 137.097 23.823V37.6709C137.097 38.4776 136.897 39.1039 136.499 39.5573C136.101 40.0106 135.515 40.2372 134.745 40.2372Z" fill="#7AACD4"/>
<path d="M144.27 40.281C143.522 40.281 142.949 40.0738 142.55 39.6595C142.151 39.2452 141.953 38.6473 141.954 37.8657V15.4439C141.954 14.6665 142.152 14.0743 142.55 13.6721C142.948 13.27 143.515 13.0677 144.27 13.0677C144.906 13.0299 145.53 13.2471 146.007 13.6721C146.418 14.0743 146.623 14.6665 146.623 15.4439V25.2194H146.099C146.597 23.946 147.502 22.8767 148.669 22.1802C149.864 21.478 151.226 21.119 152.608 21.142C154.079 21.142 155.285 21.419 156.227 21.9731C157.193 22.5487 157.942 23.4315 158.358 24.4833C158.831 25.6012 159.067 27.0155 159.067 28.7264V37.8584C159.067 38.6399 158.868 39.2379 158.469 39.6522C158.07 40.0665 157.497 40.2736 156.751 40.2736C156.003 40.2736 155.424 40.0665 155.014 39.6522C154.604 39.2379 154.399 38.6399 154.399 37.8584V28.9531C154.399 27.52 154.131 26.4761 153.595 25.8213C153.06 25.1665 152.231 24.8416 151.11 24.8465C149.74 24.8465 148.65 25.2803 147.841 26.1479C147.032 27.0155 146.63 28.1667 146.635 29.6014V37.8633C146.627 39.4751 145.839 40.281 144.27 40.281Z" fill="#E77E3A"/>
<path d="M170.418 40.3494C168.898 40.3494 167.641 40.0667 166.645 39.5013C165.643 38.9282 164.86 38.0312 164.423 36.9545C163.94 35.8171 163.699 34.4085 163.699 32.7284V23.5964C163.699 22.7922 163.897 22.1951 164.298 21.8027C164.698 21.4103 165.263 21.2178 166.015 21.2178C166.768 21.2178 167.342 21.4127 167.752 21.8027C168.163 22.1926 168.368 22.7922 168.368 23.5964V32.804C168.368 34.1136 168.629 35.0819 169.152 35.7091C169.675 36.3362 170.509 36.6506 171.656 36.6523C172.229 36.6703 172.799 36.5634 173.328 36.3389C173.856 36.1143 174.33 35.7773 174.718 35.3508C175.522 34.4832 175.924 33.332 175.924 31.8974V23.5964C175.924 22.7922 176.122 22.1951 176.522 21.8027C176.923 21.4103 177.488 21.2178 178.24 21.2178C178.993 21.2178 179.567 21.4127 179.977 21.8027C180.388 22.1926 180.593 22.7922 180.593 23.5964V37.8587C180.593 39.4688 179.833 40.2739 178.315 40.2739C178.006 40.2941 177.697 40.2492 177.406 40.1423C177.115 40.0353 176.85 39.8685 176.626 39.6524C176.229 39.2381 176.029 38.6402 176.028 37.8587V34.9926L176.551 36.1234C176.1 37.3896 175.271 38.4835 174.18 39.2551C173.067 40.0022 171.754 40.3844 170.418 40.3494Z" fill="#E77E3A"/>
<path d="M195.969 40.3493C194.532 40.3806 193.119 39.9728 191.915 39.1795C190.797 38.4543 189.979 37.3402 189.618 36.0478L190.029 35.1046V37.8586C190.029 38.6401 189.83 39.238 189.433 39.6523C189.209 39.868 188.943 40.0346 188.653 40.1416C188.362 40.2485 188.053 40.2935 187.744 40.2738C186.996 40.2738 186.423 40.0666 186.026 39.6523C185.626 39.238 185.428 38.6409 185.428 37.8586V15.4368C185.428 14.6593 185.626 14.0671 186.026 13.665C186.427 13.2628 186.991 13.0605 187.744 13.0605C188.497 13.0605 189.071 13.2628 189.481 13.665C189.891 14.0671 190.096 14.6593 190.096 15.4368V25.2488H189.65C190.052 24.0114 190.872 22.9562 191.966 22.2681C193.157 21.4991 194.548 21.1046 195.961 21.1348C197.452 21.1 198.919 21.5067 200.184 22.3047C201.406 23.1177 202.377 24.2622 202.985 25.607C203.657 27.0287 203.993 28.7347 203.993 30.725C203.993 32.6861 203.657 34.3921 202.985 35.8431C202.383 37.2077 201.404 38.3673 200.164 39.182C198.907 39.9741 197.45 40.3797 195.969 40.3493ZM194.661 36.7643C195.519 36.7831 196.364 36.5476 197.09 36.0868C197.82 35.5935 198.386 34.8894 198.714 34.0664C199.131 33.0051 199.328 31.8687 199.293 30.7275C199.293 28.7144 198.87 27.2115 198.024 26.2187C197.611 25.7301 197.094 25.3422 196.512 25.0839C195.929 24.8256 195.297 24.7037 194.661 24.7272C193.806 24.7097 192.964 24.9388 192.234 25.3877C191.502 25.8707 190.934 26.5692 190.608 27.3886C190.191 28.4499 189.994 29.5862 190.029 30.7275C190.029 32.7162 190.452 34.2191 191.3 35.2362C191.707 35.7341 192.222 36.1308 192.804 36.3958C193.387 36.6607 194.022 36.7868 194.661 36.7643Z" fill="#E77E3A"/>
</g>
<defs>
<clipPath id="clip0_2753_1028">
<rect width="204" height="54" fill="white"/>
</clipPath>
</defs>
</svg>
