<svg width="29" height="29" viewBox="0 0 29 29" fill="none" xmlns="http://www.w3.org/2000/svg">
<path d="M16.6103 4.98144L18.662 9.08481C18.9418 9.65602 19.6878 10.2039 20.3173 10.3088L24.036 10.9267C26.4141 11.323 26.9737 13.0483 25.26 14.7503L22.369 17.6413C21.8794 18.1309 21.6113 19.0751 21.7628 19.7513L22.5905 23.3301C23.2433 26.1628 21.7395 27.2586 19.2332 25.7781L15.7477 23.7148C15.1182 23.3417 14.0807 23.3417 13.4395 23.7148L9.95397 25.7781C7.4593 27.2586 5.94385 26.1511 6.59666 23.3301L7.42433 19.7513C7.57587 19.0751 7.30775 18.1309 6.81815 17.6413L3.92713 14.7503C2.22516 13.0483 2.77305 11.323 5.15115 10.9267L8.86983 10.3088C9.48767 10.2039 10.2337 9.65602 10.5135 9.08481L12.5652 4.98144C13.6843 2.75489 15.5029 2.75489 16.6103 4.98144Z" stroke="#E77E3A" stroke-width="1.7486" stroke-linecap="round" stroke-linejoin="round"/>
</svg>
