<svg width="29" height="29" viewBox="0 0 29 29" fill="none" xmlns="http://www.w3.org/2000/svg">
<path d="M16.3134 4.98144L18.3651 9.08481C18.6449 9.65602 19.391 10.2039 20.0205 10.3088L23.7391 10.9267C26.1172 11.323 26.6768 13.0483 24.9632 14.7503L22.0721 17.6413C21.5825 18.1309 21.3144 19.0751 21.466 19.7513L22.2936 23.3301C22.9464 26.1628 21.4426 27.2586 18.9363 25.7781L15.4508 23.7148C14.8213 23.3417 13.7838 23.3417 13.1426 23.7148L9.65709 25.7781C7.16242 27.2586 5.64697 26.1511 6.29978 23.3301L7.12745 19.7513C7.279 19.0751 7.01088 18.1309 6.52127 17.6413L3.63025 14.7503C1.92828 13.0483 2.47618 11.323 4.85427 10.9267L8.57296 10.3088C9.1908 10.2039 9.93687 9.65602 10.2166 9.08481L12.2683 4.98144C13.3874 2.75489 15.206 2.75489 16.3134 4.98144Z" fill="#E77E3A"/>
</svg>
