<svg width="70" height="70" viewBox="0 0 70 70" fill="none" xmlns="http://www.w3.org/2000/svg">
<path d="M66.5789 68.1413L3.41343 68.1082C3.16703 68.1082 2.93072 68.0085 2.75649 67.8311C2.58226 67.6537 2.48438 67.4131 2.48438 67.1622V7.56762C2.48438 7.31674 2.58226 7.07613 2.75649 6.89873C2.93072 6.72133 3.16703 6.62167 3.41343 6.62167H21.9945V8.51356H4.34248V66.2163L65.6498 66.2484V8.53248L48.008 8.50127V6.60938L66.578 6.64248C66.8244 6.64248 67.0607 6.74215 67.2349 6.91954C67.4091 7.09694 67.507 7.33755 67.507 7.58843V67.1953C67.507 67.4462 67.4091 67.6868 67.2349 67.8642C67.0607 68.0416 66.8253 68.1413 66.5789 68.1413Z" fill="#F3BE9C"/>
<path d="M48.0051 29.3245H21.9916C21.7452 29.3245 21.5088 29.2249 21.3346 29.0475C21.1604 28.8701 21.0625 28.6295 21.0625 28.3786V2.83804C21.0625 2.58716 21.1604 2.34655 21.3346 2.16915C21.5088 1.99175 21.7452 1.89209 21.9916 1.89209H48.0051C48.2515 1.89209 48.4878 1.99175 48.662 2.16915C48.8362 2.34655 48.9341 2.58716 48.9341 2.83804V28.3786C48.9341 28.6295 48.8362 28.8701 48.662 29.0475C48.4878 29.2249 48.2515 29.3245 48.0051 29.3245ZM22.9206 27.4326H47.076V3.78398H22.9206V27.4326Z" fill="#F3BE9C"/>
<path d="M52.1889 68.1079H17.9876C17.7412 68.1079 17.5049 68.0082 17.3307 67.8308C17.1565 67.6534 17.0586 67.4128 17.0586 67.1619V61.4494C17.0586 61.1985 17.1565 60.9579 17.3307 60.7805C17.5049 60.6031 17.7412 60.5034 17.9876 60.5034H52.1889C52.4353 60.5034 52.6716 60.6031 52.8459 60.7805C53.0201 60.9579 53.118 61.1985 53.118 61.4494V67.1619C53.118 67.4128 53.0201 67.6534 52.8459 67.8308C52.6716 68.0082 52.4353 68.1079 52.1889 68.1079ZM18.9167 66.216H51.2599V62.3953H18.9167V66.216Z" fill="#F3BE9C"/>
<path d="M46.1497 62.4326H23.8626C23.6162 62.4326 23.3799 62.333 23.2057 62.1556C23.0315 61.9782 22.9336 61.7376 22.9336 61.4867V37.838C22.9336 37.5872 23.0315 37.3465 23.2057 37.1692C23.3799 36.9918 23.6162 36.8921 23.8626 36.8921H46.1497C46.3961 36.8921 46.6324 36.9918 46.8067 37.1692C46.9809 37.3465 47.0788 37.5872 47.0788 37.838V61.4867C47.0788 61.7376 46.9809 61.9782 46.8067 62.1556C46.6324 62.333 46.3961 62.4326 46.1497 62.4326ZM24.7917 60.5407H45.2207V38.784H24.7917V60.5407Z" fill="#F3BE9C"/>
<path d="M34.0703 37.8379H35.9284V61.4865H34.0703V37.8379Z" fill="#F3BE9C"/>
<path d="M37.789 24.5946H32.2146C31.9682 24.5946 31.7319 24.4949 31.5577 24.3175C31.3835 24.1401 31.2856 23.8995 31.2856 23.6486V19.3919H27.1048C26.8584 19.3919 26.6221 19.2922 26.4479 19.1148C26.2737 18.9374 26.1758 18.6968 26.1758 18.4459V12.7702C26.1758 12.5194 26.2737 12.2787 26.4479 12.1013C26.6221 11.9239 26.8584 11.8243 27.1048 11.8243H31.2856V7.56753C31.2856 7.31665 31.3835 7.07604 31.5577 6.89864C31.7319 6.72124 31.9682 6.62158 32.2146 6.62158H37.789C38.0354 6.62158 38.2717 6.72124 38.4459 6.89864C38.6201 7.07604 38.718 7.31665 38.718 7.56753V11.8243H42.8988C43.1452 11.8243 43.3815 11.9239 43.5557 12.1013C43.7299 12.2787 43.8278 12.5194 43.8278 12.7702V18.4459C43.8278 18.6968 43.7299 18.9374 43.5557 19.1148C43.3815 19.2922 43.1452 19.3919 42.8988 19.3919H38.718V23.6486C38.718 23.8995 38.6201 24.1401 38.4459 24.3175C38.2717 24.4949 38.0354 24.5946 37.789 24.5946ZM33.1437 22.7027H36.8599V18.4459C36.8599 18.195 36.9578 17.9544 37.132 17.777C37.3062 17.5996 37.5426 17.5 37.789 17.5H41.9697V13.7162H37.789C37.5426 13.7162 37.3062 13.6165 37.132 13.4391C36.9578 13.2617 36.8599 13.0211 36.8599 12.7702V8.51347H33.1437V12.7702C33.1437 13.0211 33.0458 13.2617 32.8716 13.4391C32.6973 13.6165 32.461 13.7162 32.2146 13.7162H28.0339V17.5H32.2146C32.461 17.5 32.6973 17.5996 32.8716 17.777C33.0458 17.9544 33.1437 18.195 33.1437 18.4459V22.7027Z" fill="#F3BE9C"/>
<path d="M52.6523 17.0269H61.9429V18.9187H52.6523V17.0269Z" fill="#F3BE9C"/>
<path d="M52.6523 27.4326H61.9429V29.3245H52.6523V27.4326Z" fill="#F3BE9C"/>
<path d="M52.6523 37.8379H61.9429V39.7298H52.6523V37.8379Z" fill="#F3BE9C"/>
<path d="M52.6523 48.2432H61.9429V50.1351H52.6523V48.2432Z" fill="#F3BE9C"/>
<path d="M8.05859 17.0269H17.3491V18.9187H8.05859V17.0269Z" fill="#F3BE9C"/>
<path d="M8.05859 27.4326H17.3491V29.3245H8.05859V27.4326Z" fill="#F3BE9C"/>
<path d="M8.05859 37.8379H17.3491V39.7298H8.05859V37.8379Z" fill="#F3BE9C"/>
<path d="M8.05859 48.2432H17.3491V50.1351H8.05859V48.2432Z" fill="#F3BE9C"/>
</svg>
