<svg width="26" height="28" viewBox="0 0 26 28" fill="none" xmlns="http://www.w3.org/2000/svg"> <path d="M1.37643e-05 13.3955C-0.00403348 16.0733 0.884553 18.679 2.53054 20.816C4.18447 19.9782 5.5819 19.1871 6.74468 18.4744C10.1351 16.3968 11.5454 14.9777 11.5454 14.9777C12.917 13.5345 12.2711 12.1761 12.0765 11.8424C12.0481 11.7919 12.0288 11.7641 12.0288 11.7641C11.0967 9.72067 8.70026 6.11026 8.70026 6.11026C8.01431 4.9122 7.39213 3.68012 6.83621 2.41896C6.31282 1.22981 6.05629 0.469061 6.03051 0.388184L6.61961 2.53017C4.6177 3.58591 2.94506 5.15371 1.77947 7.06689C0.613888 8.98007 -0.00105891 11.1671 1.37643e-05 13.3955ZM1.71455 12.957V10.9351H4.17674V8.52141H6.23933V10.9351H8.70155V12.957H6.23933V15.3707H4.17674V12.957H1.71455Z" fill="#E77E3A"/> <path d="M7.43945 2.1344C7.92932 3.07334 9.45691 5.02324 9.45691 5.02324C11.4086 7.32825 13.2495 7.95884 13.2495 7.95884C13.7376 8.21545 14.2724 8.3756 14.8235 8.4302C16.8075 8.57679 17.4018 6.61046 17.4018 6.61046C17.7105 5.86765 17.9554 5.10087 18.134 4.3181C18.2736 3.71111 18.3808 3.09737 18.455 2.4794C18.562 1.65733 18.605 0.828474 18.5839 0C18.455 1.02108 18.143 2.32143 18.143 2.32143C16.4186 1.48903 14.5219 1.05664 12.5998 1.05772C10.8271 1.05537 9.074 1.42147 7.4562 2.13188L7.43945 2.1344ZM13.885 4.23216C14.7552 3.97942 15.6898 4.5582 15.985 5.51988C16.2802 6.48156 15.8045 7.46978 14.9344 7.72C14.0642 7.97021 13.1296 7.39522 12.8344 6.43101C12.5392 5.4668 13.0162 4.48364 13.8863 4.23216H13.885Z" fill="#E77E3A"/> <path d="M0.483398 23.1119C0.706416 23.0613 3.12221 22.5015 3.75774 22.1869C6.10879 24.462 9.28069 25.7358 12.5843 25.7316C13.0672 25.7315 13.5497 25.7045 14.0294 25.6507C13.6826 22.3954 12.7403 18.0924 12.7403 18.0924L15.7685 15.6788C16.0005 18.5954 15.5906 22.7707 15.2528 25.4371C15.2535 25.4417 15.2535 25.4464 15.2528 25.451C15.0736 26.8954 14.9176 27.8912 14.9009 27.9999L15.5248 25.3904C18.2715 24.7414 20.7157 23.2055 22.464 21.0297C24.2124 18.854 25.1632 16.1649 25.1635 13.3952C25.1648 11.3013 24.6219 9.24162 23.5859 7.41044C22.55 5.57927 21.0552 4.03702 19.2426 2.9292C19.2426 2.9292 20.3113 9.35137 16.3511 14.0498C16.3511 14.0498 13.4184 18.2201 4.04263 21.8318L3.57212 22.0099C3.52571 22.0238 1.68099 22.7707 0.483398 23.1119Z" fill="#7AACD4"/> </svg>